<?xml version="1.0" encoding="UTF-8" standalone="no"?>
<svg
   version="1.1"
   id="Layer_1"
   x="0px"
   y="0px"
   width="100%"
   viewBox="0 0 585 585"
   enable-background="new 0 0 585 585"
   xml:space="preserve"
   sodipodi:docname="OSmosis_Logo.svg"
   inkscape:version="1.3.2 (091e20e, 2023-11-25, custom)"
   xmlns:inkscape="http://www.inkscape.org/namespaces/inkscape"
   xmlns:sodipodi="http://sodipodi.sourceforge.net/DTD/sodipodi-0.dtd"
   xmlns="http://www.w3.org/2000/svg"
   xmlns:svg="http://www.w3.org/2000/svg"><defs
   id="defs117" /><sodipodi:namedview
   id="namedview117"
   pagecolor="#ffffff"
   bordercolor="#000000"
   borderopacity="0.25"
   inkscape:showpageshadow="2"
   inkscape:pageopacity="0.0"
   inkscape:pagecheckerboard="0"
   inkscape:deskcolor="#d1d1d1"
   inkscape:zoom="2.2446108"
   inkscape:cx="417.66707"
   inkscape:cy="288.46872"
   inkscape:window-width="3200"
   inkscape:window-height="1711"
   inkscape:window-x="-9"
   inkscape:window-y="-9"
   inkscape:window-maximized="1"
   inkscape:current-layer="Layer_1" />
<path
   fill="#001b34"
   opacity="1"
   stroke="none"
   d="m 0.978454,379.02154 c 10e-6,1.06669 10e-6,2.13334 0.39962,3.65516 2.00916,0.76455 3.76471,0.77963 5.17951,1.48153 1.02956,0.51074 2.23836,1.94553 2.21167,2.93723 -0.0265,0.98474 -1.34422,2.48263 -2.37069,2.76867 -1.69007,0.47101 -3.60181,0.14655 -5.4201,0.15741 0,65.3046 0,130.6092 0,195.95691 194.885446,0 389.770896,0 584.999996,0 0,-68.31189 0,-136.66742 -0.33716,-205.43048 -6.84839,3.28702 -8.83203,9.35242 -7.53351,16.07035 2.08612,10.79342 -7.73205,16.54037 -9.89624,25.43014 -0.0637,0.26172 -0.4447,0.51587 -0.73498,0.64218 -3.65088,1.58878 -3.12341,4.82993 -3.64081,7.9776 -0.70422,4.28531 -1.59326,8.9404 -3.8963,12.45984 -2.7735,4.23828 -7.2959,7.29199 -10.69287,11.1803 -1.54553,1.76904 -2.53241,4.21896 -3.18457,6.52625 -0.79297,2.80572 -0.2201,6.21066 -1.57599,8.59579 -2.2157,3.8978 -5.28351,7.39941 -8.40418,10.67535 -5.65753,5.93903 -12.3081,10.96906 -15.78631,18.79669 -0.56977,1.28217 -2.57025,1.94449 -3.93579,2.85395 -3.76068,2.50479 -7.30811,5.49261 -11.37409,7.32687 -3.46512,1.56317 -7.61227,2.58267 -11.29516,2.21494 -1.4592,-0.14569 -2.47953,-4.68628 -3.99848,-7.0867 -2.42013,1.70111 -4.54138,3.26303 -6.73548,5.15558 -5.02099,4.4664 -9.9692,8.6022 -15.09906,13.01883 -14.08209,9.0567 -27.9826,17.83251 -42.18768,26.7724 -9.41397,4.11614 -18.52331,8.06829 -27.88293,12.26373 -11.76764,3.70709 -23.28498,7.17096 -35.00144,10.68152 -0.19913,0.0468 -0.60791,0.0625 -0.86435,0.2926 -1.15085,0.37408 -2.04526,0.51813 -3.33014,0.67529 -4.80002,0.97113 -9.20956,1.9292 -14.0473,2.94495 -8.47516,1.03241 -16.52212,2.00714 -24.99344,3.0238 -12.14682,0.26935 -23.86929,0.49683 -36.02939,0.78211 -6.46847,-0.52063 -12.49936,-1.09925 -18.97372,-1.66852 -9.88495,-1.5199 -19.32642,-3.0492 -29.18036,-4.65448 -8.09677,-2.08509 -15.78107,-4.09412 -23.8548,-6.15332 -7.77563,-2.56513 -15.16183,-5.08008 -22.90478,-7.5957 -2.80824,-0.99372 -5.36833,-1.78193 -7.69347,-3.01362 -13.99612,-7.41436 -27.93835,-14.93036 -42.21585,-22.55865 -1.23781,-0.979 -2.15839,-1.81171 -3.09956,-2.65228 -0.0206,-0.008 -0.0615,-0.0242 -0.39173,-0.1399 -4.37686,-2.95575 -8.42348,-5.79577 -12.75853,-8.8471 -1.79438,-1.48096 -3.21191,-2.87702 -4.81953,-4.00128 -24.294746,-16.9907 -43.079466,-39.16666 -59.994776,-63.55237 -0.92519,-1.51502 -1.58701,-2.8349 -2.5528,-4.2331 -0.89899,-0.96258 -1.49403,-1.8468 -2.32763,-2.97558 -2.18228,-3.38123 -4.126,-6.51786 -6.29094,-9.41571 -1.51505,2.38589 -2.47085,6.10446 -5.66312,4.11444 -1.72242,-1.07373 -2.65261,-4.63516 -2.60904,-7.05023 0.072,-3.98978 3.70946,-1.79361 5.7059,-2.7432 -0.47706,-1.13669 -0.89377,-1.9281 -1.45872,-2.86258 -0.31934,-0.36718 -0.42745,-0.61841 -0.59271,-1.19745 -0.79471,-1.83297 -1.46933,-3.36526 -2.39093,-4.87799 -0.10279,-0.20642 0.0414,-0.43234 0.16207,-0.98486 -0.57354,-0.61026 -1.1236,-0.89398 -2.11421,-1.05267 -2.6718,-1.59098 -5.03305,-3.17661 -7.00983,-5.1478 -0.34039,-0.33945 0.95362,-2.31793 1.50458,-3.9545 0.0683,-0.9675 0.12473,-1.51984 0.22255,-2.39624 -0.6691,-1.63733 -1.37962,-2.9505 -2.36836,-4.06982 -1.11028,1.34265 -1.94236,2.49142 -2.78889,3.66015 -6.12254,-5.23135 -7.27295,-4.93359 -10.28375,1.80426 -0.46586,1.04254 -2.23426,2.2695 -3.19055,2.11478 -0.99243,-0.16058 -2.37662,-1.84573 -2.46269,-2.95187 -0.30737,-3.94996 -0.14338,-7.9372 -0.14457,-11.91031 -0.002,-7.09 0.002,-7.09 7.34366,-7.20804 2.3365,10.47626 2.98776,11.108 9.63758,8.99969 -5.09066,-16.14077 -10.34094,-31.85272 -15.12983,-47.70404 -1.85622,-6.1441 -2.66869,-12.60351 -4.29134,-18.83957 -0.59142,4.96286 -1.86575,10.06324 -0.87971,14.681 1.71968,8.05347 2.30366,7.93073 -5.23163,9.95276 -0.47474,0.12741 -0.96649,0.19141 -1.45033,0.28491 0,1.06669 0,2.13334 0.40453,3.65662 3.37731,0.97806 6.35009,1.49948 7.92361,1.77548 1.18678,4.12876 1.99733,7.26313 3.00083,10.33448 0.72731,2.22601 2.82945,6.00592 2.40637,6.2951 -4.27,2.91827 -3.40932,-2.77649 -5.73323,-3.73865 -0.18659,-0.0266 -0.53398,-0.17349 -0.82966,-0.10311 -2.3963,0.57034 -4.7829,1.18139 -7.17246,1.78008 m 32.69363,45.70783 c 4.23655,-0.0769 2.64853,2.77545 2.82255,4.74167 -0.53138,0.22024 -1.06276,0.44046 -1.59414,0.66067 -0.51082,-1.59729 -1.02165,-3.19455 -1.22841,-5.40234 z"
   id="path1" />
<path
   fill="#011c36"
   opacity="1"
   stroke="none"
   d="m 0.978464,358.55289 c 0.48384,0.37515 0.97559,0.31115 1.45033,0.18374 7.53529,-2.02203 6.95131,-1.89929 5.23163,-9.95276 -0.98604,-4.61776 0.28829,-9.71814 0.91499,-15.0946 -0.55649,-10.88199 -1.48298,-21.27069 -2.51289,-32.09033 -0.0864,-2.48801 -0.0693,-4.54508 -0.10355,-7.06687 -0.71456,-31.13412 4.93303,-60.75239 14.67773,-89.71333 8.10219,-24.07942 18.67799,-46.92879 33.26366,-68.15999 0.66225,-1.10832 1.25982,-1.91476 1.93359,-3.06427 20.99939,-31.70015 46.347476,-58.844671 78.049106,-79.4139 14.42503,-9.359505 30.02574,-16.907048 45.31836,-25.547985 9.87079,-3.82946 19.39834,-7.757399 29.18322,-10.87868 34.72947,-11.078365 70.35184,-15.658839 106.7089,-12.734284 15.02496,1.208606 29.92502,3.970028 45.07348,5.757584 3.42124,-2.818067 9.41098,-1.195006 13.13102,3.207651 0.74658,0.12047 1.1737,0.185335 1.80627,-0.01929 1.6152,-0.05113 3.03122,0.133445 4.43375,0.391367 6.58249,1.210497 13.13388,2.63232 19.75329,3.581598 3.17053,0.454674 6.61597,0.722418 8.71143,-2.991532 0.37109,-0.657652 2.37158,-0.570152 3.60892,-0.526168 2.12667,0.0756 4.24496,0.387837 6.36676,0.600723 0,-1.9e-5 0,-5.7e-5 0,-0.434511 0.51141,-3.046756 -1.60932,-7.004083 3.18072,-7.482874 3.93659,-0.393482 5.04025,-2.609217 4.81928,-6.082634 -141.5875,0 -283.17501,0 -424.999996,0 0,119.020795 0,238.041735 0,357.531345 z"
   id="path2" />
<path
   fill="#011b34"
   opacity="1"
   stroke="none"
   d="m 417.97846,15.021589 c -2.1218,-0.212911 -4.24009,-0.52515 -6.36676,-0.600748 -1.23734,-0.04398 -3.23783,-0.131484 -3.60892,0.526168 -2.09546,3.71395 -5.5409,3.446206 -8.71143,2.991532 -6.61941,-0.949278 -13.1708,-2.371101 -19.75329,-3.581598 -1.40253,-0.257922 -2.81855,-0.442493 -4.33048,-0.03808 1.43494,1.209124 2.94693,1.874734 4.51279,2.369977 24.88995,7.872179 48.23456,18.969209 70.16446,33.145013 31.72116,20.504994 58.12744,46.446431 80.25751,77.261387 3.48114,0.0134 6.56573,-0.73058 8.758,2.6581 3.26635,5.04883 8.04895,9.52469 4.11279,16.36125 -0.36511,0.63413 -0.1322,1.6126 -0.19946,2.58902 -0.0225,0.15784 0.25439,0.31601 0.61682,0.32398 2.2608,1.67602 4.16473,3.33787 6.05603,5.01391 1.80493,1.59948 3.34607,3.76502 5.44146,4.71787 6.24427,2.83948 7.99988,5.58836 7.48304,12.68602 -0.0767,1.05253 0.97387,3.16321 1.32983,3.12605 6.18195,-0.6454 5.97083,3.96173 7.03992,7.8801 0.58264,2.13501 2.46905,3.88006 3.34985,5.97647 1.16358,2.76958 2.99225,5.84894 2.64557,8.5529 -1.02429,7.9904 2.50653,12.77934 9.20227,16.04063 0,-70.58348 0,-141.166946 0,-211.999992 -53.02063,0 -106.04166,0 -159.53135,0 -0.24768,3.473417 -1.35134,5.689152 -5.28793,6.082634 -4.79004,0.478791 -2.66931,4.436118 -2.76807,7.482909 1.06064,0.435705 1.75858,0.281226 2.34629,0.469979 1.29135,0.41475 2.52691,1.003079 3.78528,1.520545 -0.33359,0.668556 -0.71082,1.927639 -0.99347,1.906747 -1.47974,-0.10935 -3.0459,-0.318163 -4.35294,-0.959379 -0.65179,-0.319746 -0.81412,-1.637224 -1.19781,-2.503391 m -1.56556,10.577682 c 1.22187,-0.504764 2.44373,-1.009529 3.66559,-1.514293 0.12326,0.579134 0.24652,1.158268 0.36978,1.737402 -1.32763,0.149591 -2.65524,0.299184 -4.03537,-0.223109 z"
   id="path3" />
<path
   fill="#02182f"
   opacity="1"
   stroke="none"
   d="m 585.97846,213.4902 c -6.69574,-3.72995 -10.22656,-8.51889 -9.20227,-16.50929 0.34668,-2.70396 -1.48199,-5.78332 -2.64557,-8.5529 -0.8808,-2.09641 -2.76721,-3.84146 -3.34985,-5.97647 -1.06909,-3.91837 -0.85797,-8.5255 -7.03992,-7.8801 -0.35596,0.0372 -1.40649,-2.07352 -1.32983,-3.12605 0.51684,-7.09766 -1.23877,-9.84654 -7.48304,-12.68602 -2.09539,-0.95285 -3.63653,-3.11839 -5.44146,-4.71787 -1.8913,-1.67604 -3.79523,-3.33789 -6.01758,-4.66211 2.59863,5.49363 5.92358,10.46021 8.36792,15.82778 7.13135,15.65971 13.88006,31.52798 17.41766,48.45151 3.70417,17.72044 7.38239,35.47725 10.05097,53.3704 1.37652,9.22965 0.53637,18.78986 0.72485,28.5968 0.30273,2.51453 0.97455,4.66907 0.7854,6.74515 -0.80798,8.86472 -1.60113,17.74646 -2.91571,26.54489 -1.30798,8.75412 -3.23285,17.41611 -4.89398,26.52869 -4.28394,21.75671 -11.14728,42.21051 -21.12671,61.88061 -0.30304,0.7591 -0.6037,1.22709 -1.03412,1.99894 -1.03595,1.77105 -1.94226,3.23825 -2.86529,5.07528 -0.25007,1.1475 -0.35352,1.99662 -0.73639,2.6919 -4.83039,8.77264 -9.38996,17.7168 -14.67572,26.20819 -3.28284,5.27371 -7.68189,9.85263 -11.63208,15.08578 -5.66492,7.12809 -11.27771,13.91379 -16.92386,20.66907 -0.0334,-0.0304 0.032,0.0345 -0.0135,0.37506 -2.04746,2.72824 -4.04944,5.11585 -6.18988,7.80469 -1.3787,1.10645 -2.61899,1.91162 -4.01374,2.96924 -0.68652,0.48398 -1.21856,0.71554 -1.81295,1.24701 -0.70523,1.07394 -1.34809,1.84793 -1.99094,2.62195 1.22012,2.53961 2.24045,7.0802 3.69965,7.22589 3.68289,0.36773 7.83004,-0.65177 11.29516,-2.21494 4.06598,-1.83426 7.61341,-4.82208 11.37409,-7.32687 1.36554,-0.90946 3.36602,-1.57178 3.93579,-2.85395 3.47821,-7.82763 10.12878,-12.85766 15.78631,-18.79669 3.12067,-3.27594 6.18848,-6.77755 8.40418,-10.67535 1.35589,-2.38513 0.78302,-5.79007 1.57599,-8.59579 0.65216,-2.30729 1.63904,-4.75721 3.18457,-6.52625 3.39697,-3.88831 7.91937,-6.94202 10.69287,-11.1803 2.30304,-3.51944 3.19208,-8.17453 3.8963,-12.45984 0.5174,-3.14767 -0.0101,-6.38882 3.64081,-7.9776 0.29028,-0.12631 0.67126,-0.38046 0.73498,-0.64218 2.16419,-8.88977 11.98236,-14.63672 9.89624,-25.43014 -1.29852,-6.71793 0.68512,-12.78333 7.53351,-16.53733 0.33716,-55.41366 0.33716,-110.76791 0.33716,-166.59079 z"
   id="path4" />
<path
   fill="#011c36"
   opacity="1"
   stroke="none"
   d="m 0.978454,378.55469 c 2.38956,-0.13184 4.77616,-0.74289 7.17246,-1.31323 0.29568,-0.0704 0.64307,0.0765 0.82966,0.10311 2.32391,0.96216 1.46323,6.65692 5.73323,3.73865 0.42308,-0.28918 -1.67906,-4.06909 -2.40637,-6.2951 -1.0035,-3.07135 -1.81405,-6.20572 -3.00083,-10.33448 -1.57352,-0.276 -4.5463,-0.79742 -7.92361,-1.37549 -0.40453,4.96549 -0.40453,9.98758 -0.40454,15.47654 z"
   id="path5" />
<path
   fill="#011c36"
   opacity="1"
   stroke="none"
   d="m 0.978464,389.58404 c 1.81829,0.42664 3.73003,0.7511 5.4201,0.28009 1.02647,-0.28604 2.34419,-1.78393 2.37069,-2.76867 0.0267,-0.9917 -1.18211,-2.42649 -2.21167,-2.93723 -1.4148,-0.7019 -3.17035,-0.71698 -5.17951,-1.08151 -0.39961,1.98648 -0.39961,4.02817 -0.39961,6.50732 z"
   id="path6" />
<path
   fill="#73979f"
   opacity="1"
   stroke="none"
   d="m 6.010234,294.9968 c -0.0171,2.05706 -0.0341,4.11413 0.42383,6.59994 2.99401,-0.69858 5.51304,-1.82593 8.82789,-3.30945 -0.59877,1.43347 -1.08438,2.0242 -1.01876,2.54553 0.20162,1.60196 0.61432,3.17737 0.94497,4.7631 0.42915,-0.0788 0.85829,-0.15766 1.28743,-0.23648 0,-0.91303 0,-1.82605 0,-2.73908 0.31174,-0.22452 0.62348,-0.44903 0.93521,-0.67355 3.57263,4.27185 7.14526,8.54373 10.85951,12.98492 -2.15779,1.00903 -3.57541,1.67194 -6.02372,2.81683 2.86271,1.69852 4.87522,2.89258 6.95059,4.12394 0.34899,1.41363 0.76775,3.1098 1.1865,4.806 0.45911,-0.0345 0.91822,-0.0689 1.37732,-0.1034 0.37616,-1.6929 0.75231,-3.3858 1.33865,-6.02469 1.78143,4.1063 3.28586,7.31678 4.50906,10.63108 0.2199,0.59585 -0.72916,1.61493 -1.12164,2.44653 -1.17375,2.487 -2.71454,4.87997 -3.39741,7.49619 -0.6262,2.39901 0.62011,5.24725 -2.86336,6.6647 -0.85805,0.34915 -0.83516,2.86325 -1.08333,3.8497 3.36778,-1.60168 6.82607,-4.68127 9.22933,-4.00601 2.67012,0.75021 4.37821,4.92428 6.94146,8.15817 -3.14994,1.75098 -5.79813,3.22302 -9.6956,5.38953 -2.08333,3.81781 3.97519,5.82959 3.68719,9.76666 0,4.24954 0,8.49909 0,12.74863 -0.30598,0.0144 -0.61196,0.0287 -0.91794,0.0431 1.49681,3.51089 2.99362,7.02176 4.72585,11.08484 -2.68983,2.04129 -1.19334,8.16107 -6.77939,9.33575 -0.23027,0.0484 -0.0294,2.14703 -0.0294,3.58521 2.66123,-1.47711 4.61301,-2.56046 5.9842,-3.32154 0.72442,2.80613 1.35039,5.23093 1.97636,7.65573 1.56942,-0.55566 3.13883,-1.11132 6.04548,-2.14044 -1.21216,3.60651 -2.16464,6.44043 -2.977,8.85746 2.58444,4.87286 5.23798,9.87603 8.0185,15.11859 1.50843,-0.18216 3.23528,-0.39072 5.54562,-0.66971 -1.4891,6.70636 0.80077,10.24005 8.46941,9.14843 -0.13674,0.45002 -0.27346,0.9 -0.41019,1.35001 -2.64377,1.92383 -5.28755,3.84763 -8.06906,5.87167 1.45626,2.27353 6.7471,3.31443 3.09843,6.45347 -2.5811,-0.37638 -4.33513,-0.63215 -6.08915,-0.88791 16.65195,24.19055 35.43667,46.36651 59.731416,63.35721 1.60762,1.12426 3.02515,2.52032 4.87312,3.54412 -0.73134,-3.16674 -0.97739,-7.24402 -3.06961,-8.74096 -3.23483,-2.31455 -4.12421,-4.18183 -1.98421,-7.20969 4.21604,-5.96509 -4.33576,-8.12433 -3.71683,-12.97308 0.0238,-0.1861 -0.42713,-0.43277 -0.72811,-0.71903 -1.10106,0.40366 -2.22797,0.81681 -3.60843,1.32288 0,-1.38965 0,-2.29602 0,-3.15802 -1.7746,0 -3.33285,0 -4.6731,0 -0.30915,-0.46558 -0.45996,-0.59332 -0.48212,-0.74045 -0.84054,-5.58057 -1.64469,-11.1669 -2.53663,-16.73917 -0.0917,-0.5729 -0.58916,-1.36923 -1.08295,-1.54589 -6.785096,-2.4275 -4.657136,-6.77274 -2.553196,-11.21869 1.61706,-3.41706 0.14938,-10.71415 -2.84988,-11.49036 -5.55364,-1.43726 -7.24425,-5.17267 -7.52894,-10.19177 -4.91554,1.4577 -5.38964,1.01907 -4.85216,-3.93766 0.10516,-0.96975 0.21995,-2.12506 -0.18858,-2.93212 -1.91511,-3.78342 -4.01153,-7.4751 -6.20254,-11.49164 0.98999,-0.11261 1.78501,-0.20307 2.49539,-0.6312 -22.50554,-38.81939 -36.20507,-80.02914 -39.43943,-124.65094 -11.47536,-0.007 -22.4827,-0.0221 -33.49004,-0.037 m 87.03602,165.32412 c -0.0521,0.47867 -0.10424,0.95731 -0.15636,1.43598 -0.4245,-0.11063 -0.849,-0.22126 -1.2735,-0.33188 0.28687,-0.40982 0.57373,-0.81964 1.42986,-1.1041 z"
   id="path7" />
<path
   fill="#789ca4"
   opacity="1"
   stroke="none"
   d="m 57.633704,454.98511 c 2.01738,0.45092 3.77141,0.70669 6.35251,1.08307 3.64867,-3.13904 -1.64217,-4.17994 -3.09843,-6.45347 2.78151,-2.02404 5.42529,-3.94784 8.06906,-5.87167 0.13673,-0.45001 0.27345,-0.89999 0.41019,-1.35001 -7.66864,1.09162 -9.95851,-2.44207 -8.46941,-9.14843 -2.31034,0.27899 -4.03719,0.48755 -5.54562,0.66971 -2.78052,-5.24256 -5.43406,-10.24573 -8.0185,-15.11859 0.81236,-2.41703 1.76484,-5.25095 2.977,-8.85746 -2.90665,1.02912 -4.47606,1.58478 -6.04548,2.14044 -0.62597,-2.4248 -1.25194,-4.8496 -1.97636,-7.65573 -1.37119,0.76108 -3.32297,1.84443 -5.9842,3.32154 0,-1.43818 -0.20086,-3.53678 0.0294,-3.58521 5.58605,-1.17468 4.08956,-7.29446 6.77939,-9.33575 -1.73223,-4.06308 -3.22904,-7.57395 -4.72585,-11.08484 0.30598,-0.0144 0.61196,-0.0288 0.91794,-0.0431 0,-4.24954 0,-8.49909 0,-12.74863 0.288,-3.93707 -5.77052,-5.94885 -3.68719,-9.76666 3.89747,-2.16651 6.54566,-3.63855 9.6956,-5.38953 -2.56325,-3.23389 -4.27134,-7.40796 -6.94146,-8.15817 -2.40326,-0.67526 -5.86155,2.40433 -9.22933,4.00601 0.24817,-0.98645 0.22528,-3.50055 1.08333,-3.8497 3.48347,-1.41745 2.23716,-4.26569 2.86336,-6.6647 0.68287,-2.61622 2.22366,-5.00919 3.39741,-7.49619 0.39248,-0.8316 1.34154,-1.85068 1.12164,-2.44653 -1.2232,-3.3143 -2.72763,-6.52478 -4.50906,-10.63108 -0.58634,2.63889 -0.96249,4.33179 -1.33865,6.02469 -0.4591,0.0345 -0.91821,0.0689 -1.37732,0.1034 -0.41875,-1.6962 -0.83751,-3.39237 -1.1865,-4.806 -2.07537,-1.23136 -4.08788,-2.42542 -6.95059,-4.12394 2.44831,-1.14489 3.86593,-1.8078 6.02372,-2.81683 -3.71425,-4.44119 -7.28688,-8.71307 -10.85951,-12.98492 -0.31173,0.22452 -0.62347,0.44903 -0.93521,0.67355 0,0.91303 0,1.82605 0,2.73908 -0.42914,0.0788 -0.85828,0.15765 -1.28743,0.23648 -0.33065,-1.58573 -0.74335,-3.16114 -0.94497,-4.7631 -0.0656,-0.52133 0.41999,-1.11206 1.01876,-2.54553 -3.31485,1.48352 -5.83388,2.61087 -8.72445,3.74042 0.55493,10.39087 1.48142,20.77957 2.37261,31.58185 1.25267,6.72937 2.06514,13.18878 3.92136,19.33288 4.78889,15.85132 10.03917,31.56327 15.36154,47.94818 0.81617,2.09595 1.37595,3.57465 1.93571,5.05332 0.71053,1.3132 1.42105,2.62637 2.39823,4.40689 0.67722,1.19577 1.0878,1.92425 1.78901,2.83286 1.40249,2.91924 2.51433,5.65832 3.62617,8.39742 0.55005,0.28376 1.10011,0.56748 1.72012,1.33356 0.07,0.48239 0.0385,0.80951 0.0384,0.80951 0.67462,1.53226 1.34924,3.06455 2.36749,4.99762 0.34364,0.40085 0.65731,0.77384 0.65731,0.77384 0,0 -0.13989,0.46658 -0.13989,0.46658 0.4167,0.79141 0.83341,1.58282 1.60182,2.8233 0.55689,1.0231 0.76206,1.59714 1.21753,1.95239 1.43993,-0.67993 2.62955,-1.14108 3.81919,-1.60226 0.25018,0.48416 0.50036,0.96832 0.75054,1.45251 -1.14048,0.85102 -2.28096,1.70203 -3.37613,2.79654 0.0453,0.2435 0.085,0.73725 0.085,0.73725 1.94372,3.13662 3.88744,6.27325 6.46806,9.67242 1.16902,1.18701 1.70114,2.11148 2.23326,3.03598 0.66182,1.31986 1.32364,2.63974 2.24883,4.15476 M 32.384934,332.4876 c -0.0368,0.29867 -0.0423,0.60666 -0.12672,0.89117 -0.031,0.10456 -0.28922,0.25037 -0.37493,0.21421 -2.88873,-1.219 -5.84347,-3.46872 -7.69941,0.33151 -1.01156,-2.49179 -1.96723,-4.84595 -3.17879,-7.83045 4.09092,2.21259 7.51602,4.0651 11.37985,6.39356 m 3.99401,61.97272 c 0.54034,-0.22263 1.08068,-0.44526 1.62103,-0.66785 0.0954,0.55197 0.19085,1.10391 0.28627,1.65588 -0.55101,-0.15957 -1.10201,-0.31912 -1.9073,-0.98803 m -8.91477,-59.0095 c 0,0 -0.0509,0.0918 0,0 m 7.0829,40.05686 c 0,0 -0.0893,-0.0489 0,0 z"
   id="path8" />
<path
   fill="#6d939a"
   opacity="1"
   stroke="none"
   d="m 79.024324,420.02243 c -0.795,0.0905 -1.59002,0.18091 -2.58001,0.29352 2.19101,4.01654 4.28743,7.70822 6.20254,11.49164 0.40853,0.80706 0.29374,1.96237 0.18858,2.93212 -0.53748,4.95673 -0.0634,5.39536 4.85216,3.93766 0.28469,5.0191 1.9753,8.75451 7.52894,10.19177 2.99926,0.77621 4.46694,8.0733 2.84988,11.49036 -2.10394,4.44595 -4.2319,8.79119 2.553196,11.21869 0.49379,0.17666 0.99125,0.97299 1.08295,1.54589 0.89194,5.57227 1.69609,11.1586 2.53663,16.73917 0.0222,0.14713 0.17297,0.27487 0.48212,0.74045 1.34025,0 2.8985,0 4.6731,0 0,0.862 0,1.76837 0,3.15802 1.38046,-0.50607 2.50737,-0.91922 3.60843,-1.32288 0.30098,0.28626 0.75186,0.53293 0.72811,0.71903 -0.61893,4.84875 7.93287,7.00799 3.71683,12.97308 -2.14,3.02786 -1.25062,4.89514 1.98421,7.20969 2.09222,1.49694 2.33827,5.57422 3.35803,8.95227 3.99304,3.29718 8.03966,6.1372 12.49303,8.73742 -1.22359,-2.91113 -0.54666,-5.19836 0.84432,-7.9151 1.73123,-3.38116 2.56295,-7.22454 3.75204,-10.87848 0.0924,-0.28396 0.0575,-0.84027 -0.11571,-0.9457 -3.56968,-2.17267 -0.64868,-5.12027 -1.09681,-6.63413 3.84063,2.07327 7.98523,4.31061 13.51126,7.2937 -0.58594,-2.764 -0.56009,-4.21951 -1.18468,-5.29852 -2.03708,-3.5192 -0.6559,-5.22687 2.56769,-6.32617 -18.42244,-13.57511 -35.48438,-28.17554 -49.54988,-45.84238 -8.828686,-11.08917 -16.691056,-22.94772 -24.986956,-34.46112 m 66.231736,78.52798 c -0.26663,-0.2536 -0.53575,-0.50491 -0.78586,-0.77389 -0.006,-0.007 0.19579,-0.20789 0.30069,-0.31836 0.26677,0.254 0.53352,0.50796 0.48517,1.09225 m -13.09146,26.90308 c 0.005,0.36731 0.009,0.73462 0.0137,1.10193 -0.15242,0.002 -0.43732,0.0141 -0.43811,0.004 -0.0288,-0.36548 -0.0312,-0.7331 0.42436,-1.1059 z"
   id="path9" />
<path
   fill="#699097"
   opacity="1"
   stroke="none"
   d="m 153.81348,500.58221 c -3.47591,0.84302 -4.85709,2.55069 -2.82001,6.06989 0.62459,1.07901 0.59874,2.53452 1.18468,5.29852 -5.52603,-2.98309 -9.67063,-5.22043 -13.51126,-7.2937 0.44813,1.51386 -2.47287,4.46146 1.09681,6.63413 0.17318,0.10543 0.20812,0.66174 0.11571,0.9457 -1.18909,3.65394 -2.02081,7.49732 -3.75204,10.87848 -1.39098,2.71674 -2.06791,5.00397 -0.51407,8.03083 -0.0765,0.35553 -0.0356,0.37182 0.38115,0.21899 1.28473,0.88458 2.15266,1.92194 3.02061,2.95929 13.96027,7.48199 27.9025,14.99799 41.89862,22.41235 2.32514,1.23169 4.88523,2.0199 7.69557,2.63178 -0.40977,-1.79199 -1.1,-3.25281 -1.96344,-4.60297 -1.75036,-2.73706 -3.59454,-5.41412 -6.08146,-9.13568 3.1541,0 4.51758,0 7.63713,0 -4.03755,-6.04077 -8.25981,-10.76318 -10.59572,-16.28375 -2.53322,-5.98688 -6.50595,-10.17249 -11.49696,-13.53864 1.46963,-1.85968 2.70692,-3.42541 3.75329,-5.26916 -5.4768,-3.50409 -10.76271,-6.73007 -16.04861,-9.95606 z"
   id="path10" />
<path
   fill="#264f61"
   opacity="1"
   stroke="none"
   d="m 425.97443,548.99432 c 13.90045,-8.77588 27.80096,-17.55169 41.70654,-26.92743 -1.15967,-1.73053 -3.14334,-2.73108 -3.3472,-4.0144 -0.87216,-5.48987 -1.66257,-10.80145 -7.86856,-12.09717 2.44092,-2.23202 5.88214,-3.93088 5.98657,-5.81476 0.15552,-2.80438 0.79703,-3.97222 3.09763,-5.28158 3.48575,-1.98383 3.47488,-7.14267 -0.0284,-8.71152 -3.0253,-1.3548 -3.72324,-3.46542 -3.89319,-6.16107 -11.0763,8.45697 -21.84979,16.74905 -32.36505,25.29175 1.14435,2.56366 2.34363,4.81402 2.823,7.20849 0.42544,2.12519 0.68591,6.07392 -0.0698,6.36212 -6.14737,2.3443 -2.8789,9.89838 -9.08328,12.48993 2.6001,1.13752 3.79001,1.62519 4.95199,2.17212 5.16697,2.43201 5.31714,5.5871 1.0687,9.21839 -1.60526,1.37207 -2.021,4.1358 -2.97894,6.26513 z"
   id="path11" />
<path
   fill="#2c5567"
   opacity="1"
   stroke="none"
   d="m 425.6698,549.15833 c 1.26257,-2.29334 1.67831,-5.05707 3.28357,-6.42914 4.24844,-3.63129 4.09827,-6.78638 -1.0687,-9.21839 -1.16198,-0.54693 -2.35189,-1.0346 -4.95199,-2.17212 6.20438,-2.59155 2.93591,-10.14563 9.08328,-12.48993 0.75571,-0.2882 0.49524,-4.23693 0.0698,-6.36212 -0.47937,-2.39447 -1.67865,-4.64483 -3.14972,-7.09149 -11.39267,5.69922 -22.20044,11.53204 -32.9946,17.79572 1.73892,12.8927 2.03592,25.43377 2.09573,37.98797 9.10932,-3.95221 18.21866,-7.90436 27.63263,-12.0205 z"
   id="path12" />
<path
   fill="#335b6c"
   opacity="1"
   stroke="none"
   d="m 397.78687,561.42206 c 0.19049,-12.79743 -0.10651,-25.3385 -2.21912,-38.1532 -12.48657,3.85638 -24.58585,8.06561 -36.6156,12.67456 2.72455,1.29321 5.40393,2.12183 8.0245,3.10675 1.35856,0.51062 3.43003,1.01044 3.78113,2.00751 2.16962,6.16156 -0.26614,10.74896 -6.52823,13.4461 -1.13519,0.48896 -2.78659,1.51166 -2.87213,2.41376 -0.43676,4.6062 -4.74856,9.69922 1.2963,13.72119 0.29443,0.19593 0.22882,0.93299 0.33084,1.41809 11.51733,-3.4638 23.03467,-6.92767 34.80231,-10.63476 z"
   id="path13" />
<path
   fill="#537c87"
   opacity="1"
   stroke="none"
   d="m 235.77922,573.57532 c 9.44145,1.52929 18.88292,3.05859 28.57094,4.27838 -2.39655,-2.51459 -1.38266,-4.39484 0.30179,-6.27435 1.37195,1.29705 2.3576,2.94378 3.55014,3.11047 0.82574,0.11548 2.96213,-2.22473 2.74808,-2.75397 -1.09675,-2.71191 -2.76606,-5.19232 -4.56211,-8.32342 2.46878,-2.55603 2.09265,-5.10181 -2.20355,-6.89661 -0.7504,-0.31354 -1.19348,-1.8609 -1.3913,-2.91126 -0.80041,-4.24951 -0.77536,-8.86956 -5.99597,-10.69561 -0.4621,-0.16162 -0.52469,-1.4654 -1.10628,-2.43848 -10.13128,-2.27484 -19.92915,-4.34985 -29.71257,-6.04706 0.3212,2.92676 0.62796,5.47571 0.94816,8.13623 3.49491,1.76203 7.15498,3.6073 11.42791,5.76154 -1.94467,2.60852 -3.38749,4.54388 -5.18207,6.95111 2.44445,1.5697 5.07207,3.25702 8.33495,5.35223 -3.11212,1.92609 -5.25825,3.25434 -8.03021,4.96991 4.66672,2.14142 3.65431,4.93171 2.30209,7.78089 z"
   id="path14" />
<path
   fill="#204b5d"
   opacity="1"
   stroke="none"
   d="m 461.9306,479.82153 c -0.13284,2.86051 0.5651,4.97113 3.5904,6.32593 3.50329,1.56885 3.51416,6.72769 0.0284,8.71152 -2.3006,1.30936 -2.94211,2.4772 -3.09763,5.28158 -0.10443,1.88388 -3.54565,3.58274 -5.98657,5.81476 6.20599,1.29572 6.9964,6.6073 7.86856,12.09717 0.20386,1.28332 2.18753,2.28387 3.52884,3.73358 5.12473,-3.81677 10.07294,-7.95257 14.66901,-12.4274 -1.25968,-0.62924 -2.5568,-0.63772 -3.00626,-1.25921 -1.78171,-2.46357 -0.38272,-14.71103 1.89752,-16.98539 3.92304,-3.91296 5.79014,-8.25366 5.83793,-14.08972 0.0331,-4.03903 2.18701,-8.37866 4.37015,-11.99411 2.25137,-3.72851 1.76025,-12.67447 -2.06192,-14.89059 -1.65131,1.82815 -2.93208,3.57 -4.4025,5.13357 -7.71891,8.20762 -15.48575,16.37012 -23.23594,24.54831 z"
   id="path15" />
<path
   fill="#1c475a"
   opacity="1"
   stroke="none"
   d="m 489.85212,449.97113 c 3.53909,2.38464 4.03021,11.3306 1.77884,15.05911 -2.18314,3.61545 -4.3371,7.95508 -4.37015,11.99411 -0.0478,5.83606 -1.91489,10.17676 -5.83793,14.08972 -2.28024,2.27436 -3.67923,14.52182 -1.89752,16.98539 0.44946,0.62149 1.74658,0.62997 3.07907,0.92859 2.54621,-1.5535 4.66746,-3.11542 7.08759,-4.81653 0.94168,-0.91321 1.58454,-1.6872 2.29749,-3.05802 0.69995,-0.79873 1.32983,-1.00064 1.95971,-1.20257 1.24027,-0.80518 2.48056,-1.61035 3.86835,-3.11499 0.21018,-4.74225 0.77652,-8.35071 6.22629,-7.7471 0,0 -0.0654,-0.0648 -0.0553,-0.50083 0.33832,-10.49197 0.6597,-20.54815 1.00742,-30.60345 0.0282,-0.81442 -0.0631,-2.00379 0.4082,-2.37473 4.66821,-3.67447 2.84103,-8.38592 2.77347,-13.12439 -0.0696,-4.8779 -1.92182,-7.36319 -6.57624,-8.30716 -4.09069,5.39841 -7.92001,10.59565 -11.74933,15.79285 z"
   id="path16" />
<path
   fill="#618891"
   opacity="1"
   stroke="none"
   d="m 170.05301,510.81634 c -1.23729,1.56568 -2.47458,3.13141 -3.94421,4.99109 4.99101,3.36615 8.96374,7.55176 11.49696,13.53864 2.33591,5.52057 6.55817,10.24298 10.59572,16.28375 -3.11955,0 -4.48303,0 -7.63713,0 2.48692,3.72156 4.3311,6.39862 6.08146,9.13568 0.86344,1.35016 1.55367,2.81098 2.32016,4.60358 7.38413,2.89685 14.77033,5.4118 22.59374,7.59314 1.5759,-2.28491 2.71458,-4.23627 4.54373,-7.37073 -3.50977,0.54602 -6.08047,0.94592 -8.85422,1.37744 1.23877,-4.04407 -0.87751,-6.7077 -4.47595,-7.92944 0.42752,-2.68518 0.79398,-4.98688 1.21677,-7.64246 0.84681,-0.43914 2.14708,-1.11352 4.32771,-2.2445 -1.65996,-3.91553 -3.27084,-7.71534 -4.61533,-10.88672 1.54847,-1.25769 2.92897,-2.37897 4.02109,-3.7013 -12.74908,-6.05011 -25.20979,-11.89911 -37.6705,-17.74817 z"
   id="path17" />
<path
   fill="#5b838d"
   opacity="1"
   stroke="none"
   d="m 208.0119,528.7655 c -1.38051,1.12134 -2.76101,2.24262 -4.30948,3.50031 1.34449,3.17138 2.95537,6.97119 4.61533,10.88672 -2.18063,1.13098 -3.4809,1.80536 -4.32771,2.2445 -0.42279,2.65558 -0.78925,4.95728 -1.21677,7.64246 3.59844,1.22174 5.71472,3.88537 4.47595,7.92944 2.77375,-0.43152 5.34445,-0.83142 8.85422,-1.37744 -1.82915,3.13446 -2.96783,5.08582 -4.15431,7.4209 7.63653,2.39282 15.32083,4.40185 23.4176,6.48694 1.76471,-2.77319 2.77712,-5.56348 -1.8896,-7.7049 2.77196,-1.71557 4.91809,-3.04382 8.03021,-4.96991 -3.26288,-2.09521 -5.8905,-3.78253 -8.33495,-5.35223 1.79458,-2.40723 3.2374,-4.34259 5.18207,-6.95111 -4.27293,-2.15424 -7.933,-3.99951 -11.42791,-5.76154 -0.3202,-2.66052 -0.62696,-5.20947 -1.27714,-8.28149 -6.10812,-2.25299 -11.87281,-3.98285 -17.63751,-5.71265 z"
   id="path18" />
<path
   fill="#4c7480"
   opacity="1"
   stroke="none"
   d="m 256.02438,540.87024 c 0.24817,0.77331 0.31076,2.07709 0.77286,2.23871 5.22061,1.82605 5.19556,6.4461 5.99597,10.69561 0.19782,1.05036 0.6409,2.59772 1.3913,2.91126 4.2962,1.7948 4.67233,4.34058 2.20355,6.89661 1.79605,3.1311 3.46536,5.61151 4.56211,8.32342 0.21405,0.52924 -1.92234,2.86945 -2.74808,2.75397 -1.19254,-0.16669 -2.17819,-1.81342 -3.55014,-3.11047 -1.68445,1.87951 -2.69834,3.75976 0.14169,6.26495 6.22781,0.87878 12.2587,1.4574 18.78696,1.6535 3.2912,-3.26404 6.08505,-6.14557 9.15021,-9.30701 -0.44278,-0.99328 -1.08951,-2.44409 -1.36612,-3.06463 2.61721,-3.7276 5.18274,-6.67798 6.9147,-10.05573 1.57883,-3.07904 1.12137,-5.46338 -3.39945,-6.216 -3.99044,-0.66431 -8.06817,-2.39477 -9.01355,-7.63574 -10.22259,-0.83991 -20.03228,-1.59418 -29.84201,-2.34845 z"
   id="path19" />
<path
   fill="#3f6574"
   opacity="1"
   stroke="none"
   d="m 319.97452,578.99829 c 8.047,-0.97473 16.09396,-1.94946 24.56027,-3.3454 -4.62637,-7.64673 -5.76562,-15.39459 -3.14743,-23.85614 0.28171,-0.91034 -1.31976,-2.75177 -2.45019,-3.66082 -1.3573,-1.09138 -3.14615,-1.64618 -4.74814,-2.43335 1.73596,-0.91736 3.42288,-1.94837 5.21991,-2.72431 2.43863,-1.05298 5.89633,-0.48419 6.06649,-4.24518 -10.45138,1.40497 -20.46688,2.75904 -30.54144,4.47156 -2.81488,2.20422 -2.82864,4.4281 -1.73013,7.42462 1.00394,2.73865 0.99472,5.84058 1.53763,8.76282 0.11697,0.62964 0.7723,1.13953 1.03216,1.76581 1.09842,2.64746 2.48868,5.23932 3.11316,8.00061 0.72336,3.19836 0.75549,6.55298 1.08771,9.83978 z"
   id="path20" />
<path
   fill="#396171"
   opacity="1"
   stroke="none"
   d="m 345.91129,538.68219 c -0.60602,3.81189 -4.06372,3.2431 -6.50235,4.29608 -1.79703,0.77594 -3.48395,1.80695 -5.21991,2.72431 1.60199,0.78717 3.39084,1.34197 4.74814,2.43335 1.13043,0.90905 2.7319,2.75048 2.45019,3.66082 -2.61819,8.46155 -1.47894,16.20941 3.57559,23.7984 4.41843,-0.59448 8.82797,-1.55255 13.672,-2.83557 1.47049,-0.41449 2.50653,-0.50403 3.54257,-0.5935 0,0 0.40878,-0.0157 0.60791,-0.0625 0.0971,-0.53186 0.16272,-1.26892 -0.13171,-1.46485 -6.04486,-4.02197 -1.73306,-9.11499 -1.2963,-13.72119 0.0855,-0.9021 1.73694,-1.9248 2.87213,-2.41376 6.26209,-2.69714 8.69785,-7.28454 6.52823,-13.4461 -0.3511,-0.99707 -2.42257,-1.49689 -3.78113,-2.00751 -2.62057,-0.98492 -5.29995,-1.81354 -8.42984,-3.01153 -4.52844,0.67809 -8.582,1.66082 -12.63552,2.64355 z"
   id="path21" />
<path
   fill="#456c7a"
   opacity="1"
   stroke="none"
   d="m 319.5502,579.04022 c 0.0921,-3.32873 0.06,-6.68335 -0.66339,-9.88171 -0.62448,-2.76129 -2.01474,-5.35315 -3.11316,-8.00061 -0.25986,-0.62628 -0.91519,-1.13617 -1.03216,-1.76581 -0.54291,-2.92224 -0.53369,-6.02417 -1.53763,-8.76282 -1.09851,-2.99652 -1.08475,-5.2204 1.32767,-7.43512 -1.41315,-0.29986 -2.48285,-0.23065 -3.62912,0.18897 -1.95386,2.33874 -3.6153,2.51611 -5.39185,-0.27259 -6.71921,0.0347 -12.97525,0.11426 -19.23126,0.19373 0.53247,5.1554 4.6102,6.88586 8.60064,7.55017 4.52082,0.75262 4.97828,3.13696 3.39945,6.216 -1.73196,3.37775 -4.29749,6.32813 -6.9147,10.05573 0.27661,0.62054 0.92334,2.07135 1.36612,3.06463 -3.06516,3.16144 -5.85901,6.04297 -8.71262,9.24909 11.66272,0.0972 23.38519,-0.13031 35.53201,-0.39966 z"
   id="path22" />
<path
   fill="#011c36"
   opacity="1"
   stroke="none"
   d="m 29.850524,406.13782 c -0.28156,-1.67255 -0.84134,-3.15125 -1.63283,-4.87403 -6.90621,1.491 -7.55747,0.85926 -9.89397,-9.617 -7.34177,0.11804 -7.34578,0.11804 -7.34366,7.20804 10e-4,3.97311 -0.1628,7.96035 0.14457,11.91031 0.0861,1.10614 1.47026,2.79129 2.46269,2.95187 0.95629,0.15472 2.72469,-1.07224 3.19055,-2.11478 3.0108,-6.73785 4.16121,-7.03561 10.28375,-1.80426 0.84653,-1.16873 1.67861,-2.3175 2.7889,-3.66015 z"
   id="path23" />
<path
   fill="#011c36"
   opacity="1"
   stroke="none"
   d="m 45.154664,434.9567 c -0.20518,-0.57404 -0.41035,-1.14808 -0.90687,-1.8259 -2.34816,0.50052 -5.98564,-1.69565 -6.05762,2.29413 -0.0436,2.41507 0.88662,5.9765 2.60904,7.05023 3.19227,1.99002 4.14807,-1.72855 5.66311,-4.11444 0.22123,-0.23877 0.18155,-0.73252 -0.076,-1.13336 -0.58225,-1.02414 -0.90696,-1.6474 -1.23167,-2.27066 z"
   id="path24" />
<path
   fill="#011c36"
   opacity="1"
   stroke="none"
   d="m 37.501584,421.70618 c -0.67129,-2.86417 -1.78313,-5.60325 -3.52581,-8.51719 -1.08435,-0.17318 -1.53785,-0.17153 -1.99137,-0.16989 -0.53904,1.22135 -1.83305,3.19983 -1.49266,3.53928 1.97678,1.97119 4.33803,3.55682 7.00984,5.1478 z"
   id="path25" />
<path
   fill="#011c36"
   opacity="1"
   stroke="none"
   d="m 33.520054,425.03461 c 0.35879,1.90255 0.86962,3.49981 1.38044,5.0971 0.53138,-0.22021 1.06276,-0.44043 1.59414,-0.66067 -0.17402,-1.96622 1.414,-4.8186 -2.97458,-4.43643 z"
   id="path26" />
<path
   fill="#6d939a"
   opacity="1"
   stroke="none"
   d="m 138.69783,534.17804 c -0.55072,-0.89105 -1.41865,-1.92841 -2.68278,-2.80506 0.52439,0.99335 1.44497,1.82606 2.68278,2.80506 z"
   id="path27" />
<path
   fill="#73979f"
   opacity="1"
   stroke="none"
   d="m 55.080914,450.75201 c -0.22816,-0.84616 -0.76028,-1.77063 -1.69074,-2.71307 0.1967,0.86627 0.79174,1.75049 1.69074,2.71307 z"
   id="path28" />
<path
   fill="#335b6c"
   opacity="1"
   stroke="none"
   d="m 361.92108,572.39612 c -0.7796,-0.14057 -1.81564,-0.051 -2.89569,0.3504 0.85043,0.16779 1.74484,0.0237 2.89569,-0.3504 z"
   id="path29" />
<path
   fill="#09263b"
   opacity="1"
   stroke="none"
   d="m 31.996324,412.60388 c 0.4416,0.41358 0.8951,0.41193 1.68881,0.40497 -0.0704,-0.73377 -0.48096,-1.46225 -1.1996,-2.33392 -0.36448,0.40911 -0.42089,0.96145 -0.48921,1.92895 z"
   id="path30" />
<path
   fill="#072238"
   opacity="1"
   stroke="none"
   d="m 39.453724,423.74371 c 0.24698,-0.0195 0.27848,-0.34665 0.23202,-0.50247 -0.19065,0.0701 -0.33482,0.29605 -0.23202,0.50247 z"
   id="path31" />
<path
   fill="#072238"
   opacity="1"
   stroke="none"
   d="m 42.437344,429.81915 c 0.14826,0.14307 0.28815,-0.32351 0.28815,-0.32351 0,0 -0.31367,-0.37299 -0.53721,-0.47312 -0.17838,0.17822 -0.0703,0.42945 0.24906,0.79663 z"
   id="path32" />
<path
   fill="#edfdfb"
   opacity="1"
   stroke="none"
   d="m 580.0033,295.2298 c -0.16144,-9.41086 0.67871,-18.97107 -0.69781,-28.20072 -2.66858,-17.89315 -6.3468,-35.64996 -10.05097,-53.3704 -3.5376,-16.92353 -10.28631,-32.7918 -17.41766,-48.45151 -2.44434,-5.36757 -5.76929,-10.33415 -8.73035,-15.83574 -0.0385,-0.35181 -0.31531,-0.50998 -0.58044,-0.89069 -4.4527,-7.37336 -8.6402,-14.36604 -12.8277,-21.35872 -21.6861,-30.841739 -48.09238,-56.783176 -79.81354,-77.28817 -21.9299,-14.175804 -45.27451,-25.272834 -70.16446,-33.145013 -1.56586,-0.495243 -3.07785,-1.160853 -4.71817,-2.100486 -0.53046,-0.41815 -0.95758,-0.483015 -2.09735,-0.487591 -4.78492,-0.97844 -8.85718,-2.017172 -12.92945,-3.055905 C 345.01856,8.989659 330.1185,6.228237 315.09354,5.019631 278.73648,2.095076 243.11411,6.67555 208.38464,17.753915 c -9.78488,3.121281 -19.31243,7.04922 -29.14331,11.243285 0.86078,2.764883 1.90683,4.893661 3.43088,7.995189 -1.95987,-0.520363 -2.51553,-0.516651 -2.86172,-0.784088 -2.44376,-1.887825 -4.7062,-1.141094 -5.7551,1.234181 -0.52289,1.184082 0.74951,3.192104 1.28397,4.802841 0.49437,1.489971 1.45942,2.92168 1.56236,4.423916 0.23834,3.478881 -0.36482,7.058391 0.19658,10.461261 0.69801,4.231007 0.57294,7.177277 -4.74613,7.360596 -0.9832,0.03389 -2.12931,0.995972 -2.85626,1.829605 -3.12626,3.585045 -6.05524,7.343506 -9.21986,10.892761 -0.74593,0.836594 -2.13726,1.577622 -3.21656,1.557343 -5.95689,-0.111969 -11.93595,-0.222672 -17.85148,-0.856087 -2.91393,-0.312004 -5.92061,-1.361465 -8.49828,-2.780327 -2.84231,-1.564529 -5.17467,-1.512603 -5.8828,1.575585 -0.85465,3.727234 -0.83534,7.694549 -0.8513,11.559364 -0.009,2.277298 0.6631,4.554848 0.99903,6.836685 0.63505,4.313668 -0.67448,6.255825 -5.58496,6.053255 -6.27302,-0.25878 -8.79905,3.93136 -6.32621,9.53854 0.70134,1.5903 1.77168,3.01789 2.73039,4.61611 -0.85191,0.53045 -1.38338,1.1287 -1.96681,1.18459 -8.80917,0.84381 -14.298596,6.02959 -18.545026,13.35979 -1.04435,1.80278 -3.84496,3.65965 -5.80139,3.62118 -3.2512,-0.0639 -6.47264,-1.64157 -10.18171,-2.71977 -1.32006,0.81625 -3.18152,2.88681 -5.18413,3.03375 -6.08976,0.44686 -12.23403,0.15084 -18.35707,0.14406 -0.59756,0.80646 -1.19513,1.6129 -1.52212,2.86633 3.19459,2.10298 6.11861,3.75896 9.6006,5.73091 1.20413,-0.98089 2.9017,-2.48771 4.72702,-3.81945 2.31119,-1.68624 4.52956,-3.35892 5.77037,1.29303 0.33261,1.247 2.73442,2.82452 4.02094,2.68829 1.30533,-0.13822 2.40692,-2.20693 3.59633,-3.43153 1.03425,-1.06485 2.14623,-3.07114 3.08227,-2.99178 1.68042,0.1425 3.33283,1.42409 4.83692,2.46165 0.65377,0.45099 0.91145,1.4762 1.73582,2.91631 1.8819,-2.88486 3.5735,-5.09663 4.85319,-7.52544 2.13819,-4.05822 4.574866,-6.90376 9.926746,-6.41608 1.72535,0.15722 4.91461,-2.11917 5.30096,-3.77885 0.7692,-3.30437 2.60089,-4.15381 5.3468,-4.93213 6.13394,-1.73867 8.75553,-7.84208 13.52642,-11.32769 1.51941,-1.11006 2.73285,-2.64772 4.0477,-4.02652 1.36669,-1.43312 3.85247,-3.01192 3.73691,-4.343784 -0.15005,-1.729431 -2.26932,-3.396973 -3.76581,-4.861412 -0.96003,-0.939476 -2.75071,-1.191673 -3.41963,-2.233246 -1.36034,-2.118225 -2.3428,-4.514374 -3.22361,-6.891372 -0.48592,-1.311295 -0.45007,-2.815934 -0.64945,-4.233414 1.34758,-0.142975 2.93176,-0.804917 3.9935,-0.3209 2.21072,1.007828 4.0836,2.728874 6.21272,3.952568 1.62065,0.931457 3.39676,2.122116 5.14824,2.200355 6.06946,0.271111 12.15837,0.106736 18.37071,-0.235885 11.77263,-20.718903 34.81746,-24.337277 51.2184,-15.002533 12.42841,7.073738 17.96497,18.367683 19.01468,32.353563 7.62428,5.15687 11.63361,-3.10647 17.61961,-3.81922 -0.16449,-0.923877 -0.25401,-1.564777 -0.39482,-2.194202 -0.66841,-2.988113 -1.40397,-6.286087 2.06491,-7.80735 1.86948,-0.819839 5.13524,-1.183372 6.38536,-0.12149 2.62241,2.227546 2.07563,5.622131 0.60572,8.683319 -0.47074,0.980354 -1.31244,2.424983 -0.94696,3.061663 2.64731,4.61162 3.80121,9.4652 3.62646,14.77785 -0.0333,1.01074 1.45804,2.05641 2.20905,3.11219 0.84228,1.18415 1.513,2.51927 2.49365,3.56882 1.26923,1.35832 2.59537,3.14452 4.21341,3.58542 2.55768,0.69696 5.50967,0.97475 4.66687,4.3 -0.54245,2.14017 -2.44956,4.86566 -4.35898,5.5103 -2.87643,0.97112 -4.69299,-1.39996 -5.47623,-4.3831 -0.30139,-1.1478 -1.43743,-2.07645 -2.19317,-3.10494 -0.59256,1.18454 -1.65512,2.351 -1.70151,3.55658 -0.30264,7.86187 -0.72433,15.78966 4.46362,22.99704 6.99558,1.37204 7.02802,1.44007 4.79847,11.10167 3.25497,2.42049 6.45925,4.80329 10.01,7.12508 3.26673,-1.59509 6.18693,-3.12918 9.0767,-5.15161 0.14819,-15.2432 0.32681,-29.99803 0.29339,-45.03578 -4.42215,-2.85408 -8.91608,-5.06203 -12.77746,-8.07946 -6.16849,-4.8203 -9.98453,-11.4861 -11.67734,-19.04971 -4.12854,-18.447075 6.99963,-37.158916 25.05795,-42.679691 17.39624,-5.318356 37.14429,3.898083 43.78034,20.432354 7.42913,18.510338 0.4681,37.694647 -16.97568,47.145237 -0.0256,17.11087 -0.0143,33.75928 0.28534,50.57021 2.71261,1.7513 5.1369,3.34012 7.69482,4.61822 5.66086,-5.57711 11.18805,-10.84353 16.83289,-16.38192 1.13226,-1.1622 2.14691,-2.0524 3.2976,-3.20099 1.01465,-0.99958 1.89322,-1.74077 2.95893,-2.78968 10.08526,-9.64518 19.98337,-18.98265 29.84546,-28.67481 -11.62146,-17.71911 -10.20551,-34.995786 3.9183,-48.603238 13.36435,-12.875755 34.46304,-13.103916 48.96643,-0.529495 14.17349,12.28836 16.39444,33.069873 5.22235,48.207543 -0.88687,1.20163 -1.28323,2.76529 -1.59396,4.26295 5.68256,5.46706 11.05145,10.83187 16.80719,16.17269 2.70673,-0.91295 5.00235,-1.87244 7.35037,-2.67969 18.57462,-6.38593 39.21299,2.57668 46.1207,20.00229 7.80201,19.68155 0.45063,39.55049 -17.96707,47.89332 -13.29947,6.0244 -25.90891,3.92814 -38.11411,-3.8773 -10.80285,9.94138 -21.28766,19.70177 -31.66894,29.80103 7.74286,11.76768 6.92361,22.73669 -3.0488,34.46191 10.23514,0 19.12704,0 28.44684,-0.13608 3.10714,-0.0289 5.78637,0.0783 8.92364,0.062 9.27457,-0.12973 18.09595,0.0181 26.90396,-0.2594 2.00476,-0.0632 4.10917,-1.36618 5.91349,-2.50225 4.17252,-2.62717 7.84476,-6.38999 12.32651,-8.12851 25.03552,-9.71155 50.23871,7.52826 51.8172,34.99337 0.23218,0.0558 0.6051,0.35425 0.86621,0.31684 0.43091,0.009 0.60059,0.0545 1.23059,0.008 10.49341,-0.0405 20.52655,0.0112 30.55963,0.063 M 120.80029,106.05115 c -0.5724,1.29548 -0.85752,2.94065 -1.83467,3.74346 -0.51194,0.42058 -2.51311,-0.35583 -3.30932,-1.1354 -0.454,-0.44453 -0.098,-2.73474 0.34668,-2.88927 1.37638,-0.47829 2.97011,-0.33111 4.79731,0.28121 z"
   id="path33" />
<path
   fill="#eefdfb"
   opacity="1"
   stroke="none"
   d="m 160.88046,87.021446 c -6.08151,-0.0013 -12.17042,0.16304 -18.23988,-0.108071 -1.75148,-0.07824 -3.52759,-1.268898 -5.14824,-2.200355 -2.12912,-1.223694 -4.002,-2.94474 -6.21272,-3.952568 -1.06174,-0.484017 -2.64592,0.177925 -3.9935,0.3209 0.19938,1.41748 0.16353,2.922119 0.64945,4.233414 0.88081,2.376998 1.86327,4.773147 3.22361,6.891372 0.66892,1.041573 2.4596,1.29377 3.41963,2.233246 1.49649,1.464439 3.61576,3.131981 3.76581,4.861412 0.11556,1.331864 -2.37022,2.910664 -3.73691,4.343784 -1.31485,1.3788 -2.52829,2.91646 -4.0477,4.02652 -4.77089,3.48561 -7.39248,9.58902 -13.52642,11.32769 -2.74591,0.77832 -4.5776,1.62776 -5.3468,4.93213 -0.38635,1.65968 -3.57561,3.93607 -5.30096,3.77885 -5.35188,-0.48768 -7.788556,2.35786 -9.926746,6.41608 -1.27969,2.42881 -2.97129,4.64058 -4.85319,7.52544 -0.82437,-1.44011 -1.08205,-2.46532 -1.73582,-2.91631 -1.50409,-1.03756 -3.1565,-2.31915 -4.83692,-2.46165 -0.93604,-0.0794 -2.04802,1.92693 -3.08227,2.99178 -1.18941,1.2246 -2.291,3.29331 -3.59633,3.43153 -1.28652,0.13623 -3.68833,-1.44129 -4.02094,-2.68829 -1.24081,-4.65195 -3.45918,-2.97927 -5.77037,-1.29303 -1.82532,1.33174 -3.52289,2.83856 -4.72702,3.81945 -3.48199,-1.97195 -6.40601,-3.62793 -9.66529,-5.42903 -14.85624,20.78421 -25.43204,43.63358 -33.53423,67.713 -9.7447,28.96094 -15.39229,58.57921 -14.67773,89.71333 11.0586,0.47968 22.06594,0.4946 33.59852,0.0841 1.61923,-16.38495 8.71089,-28.58136 23.83699,-34.64945 15.44614,-6.19647 29.32446,-2.60177 41.403696,8.71766 1.30253,1.22058 3.43581,1.55465 5.61908,2.17511 3.13976,-0.0446 5.84416,0.0356 9.00781,0.0101 19.16806,-0.0466 37.87686,0.0126 56.89851,-0.0588 0.75398,-0.0643 1.19514,0.002 1.8436,-0.14764 -0.0582,-0.90278 -0.13918,-1.77717 -0.61748,-2.2475 -5.23818,-5.15055 -7.66342,-11.57556 -6.51372,-18.60967 0.83231,-5.09215 3.4203,-9.89732 4.92221,-14.99153 -9.53735,-9.32133 -18.77153,-18.4816 -28.35829,-27.60751 -0.91827,0.33716 -1.50044,0.61299 -2.04729,0.94668 -14.49063,8.84232 -33.26107,6.97248 -45.752996,-4.56376 -12.08706,-11.16237 -15.16042,-28.38491 -7.56572,-43.36399 5.91649,-11.66916 20.311446,-23.08816 37.133446,-19.85458 5.63884,1.08391 11.04529,3.37669 16.89743,4.99934 6.79308,-6.85611 13.24668,-13.59462 19.63684,-20.67478 -1.68342,-3.14279 -3.48076,-5.85779 -4.89096,-8.76085 -4.65646,-9.5859 -3.00491,-19.260586 -0.13019,-28.913494 z"
   id="path34" />
<path
   fill="#eafefc"
   opacity="1"
   stroke="none"
   d="m 55.833954,133.59448 c 6.04683,0.34983 12.1911,0.64585 18.28086,0.19899 2.00261,-0.14694 3.86407,-2.2175 5.18413,-3.03375 3.70907,1.0782 6.93051,2.65584 10.18171,2.71977 1.95643,0.0385 4.75704,-1.8184 5.80139,-3.62118 4.24643,-7.3302 9.735856,-12.51598 18.545026,-13.35979 0.58343,-0.0559 1.1149,-0.65414 1.96681,-1.18459 -0.95871,-1.59822 -2.02905,-3.02581 -2.73039,-4.61611 -2.47284,-5.60718 0.0532,-9.79732 6.32621,-9.53854 4.91048,0.20257 6.22001,-1.739587 5.58496,-6.053255 -0.33593,-2.281837 -1.00843,-4.559387 -0.99903,-6.836685 0.016,-3.864815 -0.003,-7.83213 0.8513,-11.559364 0.70813,-3.088188 3.04049,-3.140114 5.8828,-1.575585 2.57767,1.418862 5.58435,2.468323 8.49828,2.780327 5.91553,0.633415 11.89459,0.744118 17.85148,0.856087 1.0793,0.02028 2.47063,-0.720749 3.21656,-1.557343 3.16462,-3.549255 6.0936,-7.307716 9.21986,-10.892761 0.72695,-0.833633 1.87306,-1.795715 2.85626,-1.829605 5.31907,-0.183319 5.44414,-3.129589 4.74613,-7.360596 -0.5614,-3.40287 0.0418,-6.98238 -0.19658,-10.461261 -0.10294,-1.502236 -1.06799,-2.933945 -1.56236,-4.423916 -0.53446,-1.610737 -1.80686,-3.618759 -1.28397,-4.802841 1.0489,-2.375275 3.31134,-3.122006 5.7551,-1.234181 0.34619,0.267437 0.90185,0.263725 2.86172,0.784088 -1.52405,-3.101528 -2.5701,-5.230306 -3.65607,-7.72369 -15.10734,8.004833 -30.70805,15.552376 -45.13308,24.911881 -31.70163,20.569229 -57.049716,47.71375 -78.049106,79.4139 z"
   id="path35" />
<path
   fill="#011b34"
   opacity="1"
   stroke="none"
   d="m 360.16702,10.777217 c 3.88065,1.306371 7.95291,2.345103 12.4184,3.267939 -3.00742,-4.462947 -8.99716,-6.086008 -12.4184,-3.267939 z"
   id="path36" />
<path
   fill="#02182f"
   opacity="1"
   stroke="none"
   d="m 530.14234,127.09524 c 3.74353,7.01946 7.93103,14.01214 12.40619,21.22767 0.3324,-0.59572 0.0995,-1.57419 0.4646,-2.20832 3.93616,-6.83656 -0.84644,-11.31242 -4.11279,-16.36125 -2.19227,-3.38868 -5.27686,-2.64475 -8.758,-2.6581 z"
   id="path37" />
<path
   fill="#011c36"
   opacity="1"
   stroke="none"
   d="m 417.97846,15.02157 c 0.38369,0.866186 0.54602,2.183664 1.19781,2.50341 1.30704,0.641216 2.8732,0.850029 4.35294,0.959379 0.28265,0.02089 0.65988,-1.238191 0.99347,-1.906747 -1.25837,-0.517466 -2.49393,-1.105795 -3.78528,-1.520545 -0.58771,-0.188753 -1.28565,-0.03427 -2.34629,-0.03552 -0.41265,-3.5e-5 -0.41265,3e-6 -0.41265,2.8e-5 z"
   id="path38" />
<path
   fill="#011c36"
   opacity="1"
   stroke="none"
   d="m 416.43915,25.935215 c 1.35388,0.186349 2.68149,0.03676 4.00912,-0.112835 -0.12326,-0.579134 -0.24652,-1.158268 -0.36978,-1.737402 -1.22186,0.504764 -2.44372,1.009529 -3.63934,1.850237 z"
   id="path39" />
<path
   fill="#10394f"
   opacity="1"
   stroke="none"
   d="m 548.9834,295.25906 c -0.16973,-0.046 -0.33941,-0.092 -0.89379,0.0797 -0.58588,0.43923 -0.82966,0.59365 -1.13129,1.11086 -0.9845,8.47889 -1.95368,16.52778 -2.53839,24.58555 1.25451,0.40887 2.91156,0.8999 2.87744,1.19549 -0.58252,5.04086 2.04687,8.81708 4.56854,12.71219 0.45984,0.7103 0.13477,1.95493 0.10602,2.95102 -0.14813,5.14206 1.4527,10.11148 -0.57636,15.53793 -1.02191,2.73307 0.22309,6.71573 -1.98687,9.67536 -2.36524,3.16754 -2.94367,6.40997 -1.68579,10.27557 0.48498,1.49057 -0.45472,3.45935 -0.79792,5.19983 -0.25024,1.2691 -1.2539,2.92096 -0.77728,3.71673 3.35675,5.60431 0.34393,11.39738 0.81427,17.05329 0.43305,5.20709 0.56537,10.44711 1.24732,15.61758 0.1101,0.83493 2.39361,1.38321 3.67242,2.06397 9.97705,-19.379 16.84039,-39.8328 20.84088,-61.84778 -0.76581,-3.07498 -1.71008,-5.49484 -1.64014,-7.88504 0.11188,-3.8237 -0.88208,-6.66953 -4.14959,-8.92273 -4.1604,-2.86899 -5.60425,-6.7438 -4.83124,-12.05255 0.36951,-2.53815 -1.81928,-5.47257 -2.93231,-8.19354 -0.63977,-1.56397 -2.20105,-3.14405 -2.04212,-4.57148 0.59436,-5.33545 1.72754,-10.61084 2.76911,-16.53714 -1.63092,0 -3.76026,0.2269 -5.81421,-0.0694 -1.74475,-0.25174 -3.40247,-1.10709 -5.0987,-1.69538 z"
   id="path40" />
<path
   fill="#143d51"
   opacity="1"
   stroke="none"
   d="m 551.87934,417.32519 c -1.27643,-0.97183 -3.55994,-1.52011 -3.67004,-2.35504 -0.68195,-5.17047 -0.81427,-10.41049 -1.24732,-15.61758 -0.47034,-5.65591 2.54248,-11.44898 -0.81427,-17.05329 -0.47662,-0.79577 0.52704,-2.44763 0.77728,-3.71673 0.3432,-1.74048 1.2829,-3.70926 0.79792,-5.19983 -1.25788,-3.8656 -0.67945,-7.10803 1.68579,-10.27557 2.20996,-2.95963 0.96496,-6.94229 1.98687,-9.67536 2.02906,-5.42645 0.42823,-10.39587 0.57636,-15.53793 0.0287,-0.99609 0.35382,-2.24072 -0.10602,-2.95102 -2.52167,-3.89511 -5.15106,-7.67133 -4.56854,-12.71219 0.0341,-0.29559 -1.62293,-0.78662 -2.91315,-0.75946 -2.64361,11.88202 -3.94427,23.6171 -7.31738,34.72269 -4.5152,14.86517 -10.63586,29.24261 -15.65796,43.83053 3.60309,0.25135 6.79694,0.50168 9.45471,0.70999 1.91217,7.24244 3.99341,14.30405 5.5885,21.47382 0.95978,4.31391 1.7511,8.84824 -2.41186,12.40555 -1.06476,0.90982 -1.4737,2.56097 -2.26795,3.81845 -2.22662,3.52521 -5.29876,6.75757 -6.5672,10.59177 -2.02893,6.13345 -2.87255,12.65909 -4.21722,19.01892 3.89807,-4.89075 8.29712,-9.46967 11.57996,-14.74338 5.28576,-8.49139 9.84533,-17.43555 14.67572,-26.20819 0.38287,-0.69528 0.48632,-1.5444 0.47271,-2.93393 -1.45678,-3.9628 0.17237,-5.11435 3.25867,-5.13709 0.30072,-0.46801 0.60138,-0.936 0.90442,-1.69513 z"
   id="path41" />
<path
   fill="#194156"
   opacity="1"
   stroke="none"
   d="m 520.93574,468.38531 c 1.39679,-6.70223 2.24041,-13.22787 4.26934,-19.36132 1.26844,-3.8342 4.34058,-7.06656 6.5672,-10.59177 0.79425,-1.25748 1.20319,-2.90863 2.26795,-3.81845 4.16296,-3.55731 3.37164,-8.09164 2.41186,-12.40555 -1.59509,-7.16977 -3.67633,-14.23138 -5.5885,-21.47382 -2.65777,-0.20831 -5.85162,-0.45864 -9.61249,-0.39108 -6.84075,11.42319 -13.11453,22.52848 -19.38827,33.63376 4.39304,1.14517 6.24524,3.63046 6.31485,8.50836 0.0676,4.73847 1.89474,9.44992 -2.77347,13.12439 -0.47131,0.37094 -0.38003,1.56031 -0.4082,2.37473 -0.34772,10.0553 -0.6691,20.11148 -0.97397,30.63385 5.63599,-6.31931 11.24878,-13.10501 16.9137,-20.2331 z"
   id="path42" />
<path
   fill="#0d344b"
   opacity="1"
   stroke="none"
   d="m 549.44367,295.16681 c 1.23596,0.68054 2.89368,1.53589 4.63843,1.78763 2.05395,0.29632 4.18329,0.0694 5.81421,0.0694 -1.04157,5.9263 -2.17475,11.20169 -2.76911,16.53714 -0.15893,1.42743 1.40235,3.00751 2.04212,4.57148 1.11303,2.72097 3.30182,5.65539 2.93231,8.19354 -0.77301,5.30875 0.67084,9.18356 4.83124,12.05255 3.26751,2.2532 4.26147,5.09903 4.14959,8.92273 -0.0699,2.3902 0.87433,4.81006 1.64698,7.47485 1.93774,-8.44412 3.86261,-17.10611 5.17059,-25.86023 1.31458,-8.79843 2.10773,-17.68017 2.91571,-26.54489 0.18915,-2.07608 -0.48267,-4.23062 -0.7854,-6.74518 -10.06012,-0.44781 -20.09326,-0.49954 -30.58667,-0.45904 z"
   id="path43" />
<path
   fill="#194156"
   opacity="1"
   stroke="none"
   d="m 503.99836,489.42944 c -5.40427,-0.94421 -5.97061,2.66425 -6.04236,7.10529 1.99292,-1.98944 3.9949,-4.37705 6.04236,-7.10529 z"
   id="path44" />
<path
   fill="#10394f"
   opacity="1"
   stroke="none"
   d="m 550.84522,419.32416 c -2.9566,-0.2811 -4.58575,0.87045 -3.11224,4.46338 1.16998,-1.22513 2.07629,-2.69233 3.11224,-4.46338 z"
   id="path45" />
<path
   fill="#194156"
   opacity="1"
   stroke="none"
   d="m 493.79474,500.20337 c -0.4754,-0.0505 -1.10528,0.1514 -1.74285,0.65021 0.52429,0.0653 1.05633,-0.16623 1.74285,-0.65021 z"
   id="path46" />
<path
   fill="#01091f"
   opacity="1"
   stroke="none"
   d="m 501.60145,434.17828 c 6.53512,-11.30648 12.8089,-22.41177 19.24041,-33.836 5.58912,-14.90579 11.70978,-29.28323 16.22498,-44.1484 3.37311,-11.10559 4.67377,-22.84067 6.93292,-34.73151 1.00488,-8.48498 1.97406,-16.53387 2.96601,-25.32437 0.0648,-0.9451 0.10687,-1.14859 0.14892,-1.35211 -1.34631,-27.40933 -26.5495,-44.64914 -51.58502,-34.93759 -4.48175,1.73852 -8.15399,5.50134 -12.32651,8.12851 -1.80432,1.13607 -3.90873,2.43908 -5.91349,2.50225 -8.80801,0.2775 -17.62939,0.12967 -26.61718,0.57312 9.34842,0.43711 18.8681,0.43711 27.61294,0.43711 -1.93139,5.40454 -3.5596,9.96072 -5.2294,14.92901 -0.0416,6.27668 -0.0416,12.14124 -0.0416,17.7963 -8.52015,0 -17.22767,0 -26.38324,0.0225 -7.18985,0.22525 -13.93164,0.42801 -21.13828,0.67578 -6.79257,-0.15167 -13.12024,-0.34836 -19.83725,-0.40124 -7.82294,0.23803 -15.25653,0.33221 -23.15515,0.4798 -8.15927,-0.0217 -15.85358,-0.0969 -24.00134,-0.11594 -4.39194,-0.17084 -8.42939,0.0679 -12.24366,-0.74301 -4.72247,-1.004 -6.87237,-5.07361 -6.32522,-10.31684 0.45868,-4.3955 4.01575,-7.78561 8.66431,-7.90024 4.45571,-0.10992 8.91891,0.0847 13.84234,0.0858 5.15616,-0.0322 9.84882,-0.005 15.00702,-0.0271 5.8219,-0.0164 11.17828,0.0171 17.00159,0.005 8.14224,-0.11902 15.81759,-0.19293 23.48791,-0.64001 -0.005,-4.42105 -0.005,-8.4689 -0.005,-13.31494 5.54846,0 10.582,0.12896 15.60418,-0.0544 2.51127,-0.0917 5.00171,-0.75363 7.50156,-1.15765 -8.89191,0 -17.78381,0 -28.01895,0 9.97241,-11.72522 10.79166,-22.69423 2.74698,-34.6015 -4.21732,-3.3486 -8.02933,-6.21872 -12.28388,-9.10903 -3.12304,-0.0286 -5.80362,-0.0371 -8.71121,0.18645 -0.85034,0.34387 -1.47366,0.45567 -2.44931,0.61865 -4.33444,3.10617 -8.34451,6.12561 -12.28516,9.2331 -1.63671,1.29069 -2.91622,3.17802 -4.71435,4.0975 -13.69879,7.00494 -30.05191,2.39298 -40.53525,-11.23962 -3.04394,-3.95839 -4.73459,-7.48005 -1.92624,-12.93486 2.21787,-4.30777 2.48892,-9.93347 2.48603,-14.97322 -0.003,-4.36413 -1.60523,-8.7273 -2.79004,-13.2504 -3.05915,-4.03333 -5.82886,-7.90715 -8.59858,-11.78098 -2.42425,-1.5888 -4.84854,-3.17762 -7.95172,-4.95544 -5.1387,-1.52484 -9.59845,-2.8607 -14.49203,-4.14301 -4.64707,0.48726 -8.86026,0.92099 -13.07349,1.35471 -2.92022,1.53409 -5.84042,3.06818 -9.2839,4.95908 -1.7385,0.8242 -2.9538,1.29161 -4.13904,2.11273 -3.05054,4.12976 -6.1311,7.90579 -9.06268,12.07684 0.13372,1.04793 0.28933,1.76302 0.0778,2.3445 -3.57431,9.82202 -3.41912,19.50474 0.76398,29.14355 0.44586,1.02738 0.39981,2.67795 -0.12811,3.65621 -6.97214,12.91885 -17.34673,21.07956 -32.47392,21.14151 -8.37387,0.0343 -16.26516,-1.59639 -21.42798,-9.95388 -2.07215,-3.35435 -6.66474,-5.1517 -10.44609,-7.65907 -1.00328,-0.0738 -1.6706,-0.14636 -2.79482,-0.19595 -4.4924,0.35979 -8.52792,0.69669 -12.87758,1.17998 -3.67053,2.38261 -7.02688,4.61883 -10.38324,6.85507 -1.80507,4.93315 -4.39306,9.73832 -5.22537,14.83047 -1.1497,7.03411 1.27554,13.45912 6.51372,18.60967 0.4783,0.47033 0.55928,1.34472 0.62065,2.70834 -0.86023,5.24912 -1.51636,9.82135 -1.71472,14.47113 4.81666,0.16736 9.17555,0.25724 13.99814,0.27744 13.14598,0.0468 25.82829,0.16339 38.9747,0.20157 5.92422,-0.0751 11.39087,-0.23752 16.84273,-0.0236 5.78541,0.22705 9.23056,3.91861 9.29769,9.47763 0.0606,5.01913 -3.63945,9.1228 -8.98323,9.41809 -3.7758,0.20862 -7.58421,-0.17264 -11.82985,-0.24781 -9.794,0.013 -19.13621,-0.0168 -28.95451,0.0189 -13.59492,0.0913 -26.71379,0.11718 -40.29065,0.21417 -4.4843,0.0279 -8.5106,-0.0154 -13.0011,0.008 -13.31955,0.0663 -26.17492,0.0663 -38.36853,0.0663 0,-7.10001 0,-13.37216 -0.0508,-19.97714 -0.0726,-0.55628 -0.0944,-0.7797 -0.37691,-1.25214 -1.4176,-4.4299 -2.57452,-8.61081 -3.73145,-12.79172 -1.74791,-0.7453 -3.88119,-1.07937 -5.18372,-2.29995 -12.079236,-11.31943 -25.957556,-14.91413 -41.403696,-8.71766 -15.1261,6.06809 -22.21776,18.2645 -23.36897,34.64167 2.70912,45.04727 16.40865,86.25702 38.91419,125.07641 8.38052,11.85108 16.24289,23.70963 25.071576,34.7988 14.0655,17.66684 31.12744,32.26727 49.54988,45.84238 5.53822,3.48227 10.82413,6.70825 16.30095,10.21234 12.65161,6.12713 25.11232,11.97613 37.8614,18.02624 6.05309,1.93079 11.81778,3.66065 17.91145,5.53577 10.12685,2.22034 19.92472,4.29535 30.056,6.57019 10.14315,0.95404 19.95284,1.70831 30.17543,2.54822 6.66892,0.006 12.92496,-0.0734 20.05652,-0.18091 2.26905,-0.0204 3.66254,-0.0128 5.05603,-0.005 1.06974,-0.0692 2.13944,-0.13842 3.61164,-0.19708 10.41797,-1.3435 20.43347,-2.69757 30.88485,-4.10254 4.48938,-1.03363 8.54294,-2.01636 13.00184,-3.09424 12.50463,-4.30438 24.60391,-8.51361 37.0769,-12.80078 11.18143,-5.91089 21.9892,-11.74371 33.12366,-17.69354 11.10019,-8.40909 21.87368,-16.70117 32.94998,-25.15814 8.05298,-8.34305 15.81982,-16.50555 23.53873,-24.71317 1.47042,-1.56357 2.75119,-3.30542 4.40253,-5.13354 4.11236,-5.36575 7.94168,-10.56299 12.03238,-15.9614 M 302.83661,338.80655 c 5.67496,1.78937 8.19073,5.74759 8.10208,11.59967 -0.0703,4.63998 0.0539,9.28293 -0.0145,13.92297 -0.13641,9.24979 -0.34579,18.49845 -0.60696,28.49561 -2.22662,5.69342 -6.92532,8.768 -12.19287,7.97842 -5.42658,-0.81341 -8.97165,-5.10565 -9.02057,-11.39282 -0.10348,-13.29315 -0.13895,-26.58826 -0.0297,-39.8811 0.0651,-7.92337 5.07357,-11.94684 13.76254,-10.72275 m 79.44818,74.013 c 0.4747,-0.28116 0.9494,-0.56235 1.62582,-1.66596 -0.007,-8.16384 0.0154,-16.32781 -0.0265,-24.49148 -0.0657,-12.81128 1.12356,-13.98361 13.93441,-13.52442 0.49948,0.0179 1.00199,0.004 1.4982,0.0528 4.9451,0.49142 7.18262,2.77063 7.21198,7.73187 0.0562,9.49689 -0.0381,18.9946 -0.0325,28.49195 8.2e-4,1.42392 0.20395,2.84771 0.29263,4.00048 7.63708,0 14.73129,0 22.07016,0 0.0745,-1.371 0.17108,-2.33541 0.17245,-3.29992 0.0138,-9.83078 -0.025,-19.66181 0.0295,-29.49228 0.0291,-5.24188 1.92322,-7.11871 7.20075,-7.36911 1.49719,-0.0711 2.99838,-0.0582 4.4978,-0.0803 8.39905,-0.12375 11.01392,2.42886 11.03787,10.87951 0.0273,9.64484 0.006,19.2898 0.006,28.79032 2.6471,0.71093 5.20719,0.9657 7.336,2.05969 4.52402,2.32495 6.42187,7.33264 5.16309,12.35269 -1.47483,5.88162 -5.22138,8.77774 -11.56006,8.78244 -54.15271,0.0403 -108.30542,0.0652 -162.45813,0.0878 -21.98404,0.009 -43.9681,0.002 -65.89685,0.002 -8.54242,32.45688 -37.4728,42.23126 -57.83425,38.36636 -24.97946,-4.74149 -42.35383,-26.72476 -41.49399,-51.90423 0.79876,-23.39121 19.55788,-45.18473 40.84299,-48.66794 23.11211,-3.78214 51.1467,7.98886 58.57787,39.74533 12.80256,0 25.60512,0 38.85064,-0.77906 1.24894,-0.2882 2.49729,-0.82489 3.74689,-0.82775 22.53687,-0.0512 45.07398,-0.066 67.61057,0.0258 1.46679,0.006 2.92981,0.93564 5.28836,1.68802 8.97131,-0.0729 17.94259,-0.14584 27.25085,-0.87494 0.94434,0.21381 1.88864,0.42762 3.71631,0.87293 3.64346,-0.0728 7.28696,-0.14563 11.34082,-0.95215 M 271.26676,309.12927 c -5.14707,-11.12655 -4.25794,-21.77569 3.19671,-31.48578 7.24979,-9.44323 17.33289,-12.71426 28.82944,-11.10296 13.59796,1.90585 23.88199,13.3407 24.784,26.8146 0.96301,14.38443 -7.84119,27.2814 -21.33521,31.25315 -14.04889,4.13507 -27.80814,-1.67957 -35.47494,-15.47901 m 37.71398,-58.84442 c -5.17489,5.13759 -9.4187,6.26276 -14.10012,3.7384 -5.25144,-2.83174 -7.03318,-8.03317 -5.48001,-14.6412 7.03118,0 13.86523,0 21.83172,0 -0.60306,3.41823 -1.20639,6.83801 -2.25159,10.9028 z"
   id="path47" />
<path
   fill="#6d939a"
   opacity="1"
   stroke="none"
   d="m 92.761614,460.25824 c -0.57149,0.34714 -0.85835,0.75696 -1.14522,1.16678 0.4245,0.11062 0.849,0.22125 1.2735,0.33188 0.0521,-0.47867 0.10424,-0.95731 -0.12828,-1.49866 z"
   id="path48" />
<path
   fill="#73979f"
   opacity="1"
   stroke="none"
   d="m 32.165614,332.24957 c -3.64446,-2.09045 -7.06956,-3.94296 -11.16048,-6.15555 1.21156,2.9845 2.16723,5.33866 3.17879,7.83045 1.85594,-3.80023 4.81068,-1.55051 7.69941,-0.33151 0.0857,0.0362 0.34393,-0.10965 0.37493,-0.21421 0.0844,-0.28451 0.0899,-0.5925 -0.0926,-1.12918 z"
   id="path49" />
<path
   fill="#73979f"
   opacity="1"
   stroke="none"
   d="m 45.404954,434.73791 c 0.0744,0.84205 0.39913,1.46531 0.93606,2.24592 1.35271,-0.69364 2.49319,-1.54465 3.63367,-2.39567 -0.25018,-0.48419 -0.50036,-0.96835 -0.75054,-1.45251 -1.18964,0.46118 -2.37926,0.92233 -3.81919,1.60226 z"
   id="path50" />
<path
   fill="#73979f"
   opacity="1"
   stroke="none"
   d="m 36.506134,394.71496 c 0.67815,0.41425 1.22915,0.5738 1.78016,0.73337 -0.0954,-0.55197 -0.19085,-1.10391 -0.28627,-1.65591 -0.54035,0.22262 -1.08069,0.44525 -1.49389,0.92254 z"
   id="path51" />
<path
   fill="#73979f"
   opacity="1"
   stroke="none"
   d="m 27.438774,335.4967 c -0.0254,0.0459 0.0254,-0.0459 0,0 z"
   id="path52" />
<path
   fill="#73979f"
   opacity="1"
   stroke="none"
   d="m 34.502464,375.48322 c -0.0447,-0.0245 0.0447,0.0244 0,0 z"
   id="path53" />
<path
   fill="#699097"
   opacity="1"
   stroke="none"
   d="m 145.41361,498.38525 c -0.1092,-0.41913 -0.37595,-0.67309 -0.64272,-0.92709 -0.1049,0.11047 -0.30713,0.31143 -0.30069,0.31836 0.25011,0.26898 0.51923,0.52029 0.94341,0.60873 z"
   id="path54" />
<path
   fill="#699097"
   opacity="1"
   stroke="none"
   d="m 131.93381,525.45624 c -0.22476,0.37005 -0.22241,0.73767 -0.19357,1.10315 7.9e-4,0.0101 0.28569,-0.002 0.43811,-0.004 -0.005,-0.36731 -0.009,-0.73462 -0.24454,-1.09918 z"
   id="path55" />
<path
   fill="#3f6574"
   opacity="1"
   stroke="none"
   d="m 310.90241,543.38312 c -1.31696,-0.3581 -2.71045,-0.36572 -4.5163,-0.30054 0.901,2.81665 2.56244,2.63928 4.5163,0.30054 z"
   id="path56" />
<path
   fill="#020920"
   opacity="1"
   stroke="none"
   d="m 448.05106,206.36856 c 11.88711,7.98647 24.49655,10.08273 37.79602,4.05833 18.4177,-8.34283 25.76908,-28.21177 17.96707,-47.89332 -6.90771,-17.42561 -27.54608,-26.38822 -46.1207,-20.00229 -2.34802,0.80725 -4.64364,1.76674 -7.38473,3.00424 -4.07157,3.73564 -7.72199,7.12276 -11.36298,10.87608 -6.70132,12.12807 -8.25296,24.16335 -1.98471,36.65098 0.25272,0.50347 -0.002,1.26185 0.13303,2.20173 3.75482,3.90161 7.35592,7.50293 10.957,11.10425 z"
   id="path57" />
<path
   fill="#020a1f"
   opacity="1"
   stroke="none"
   d="m 316.14456,121.09705 c 17.40695,-8.98815 24.36798,-28.172459 16.93885,-46.682797 -6.63605,-16.534271 -26.3841,-25.75071 -43.78034,-20.432354 -18.05832,5.520775 -29.18649,24.232616 -25.05795,42.679691 1.69281,7.56361 5.50885,14.22941 11.67734,19.04971 3.86138,3.01743 8.35531,5.22538 13.20748,8.0361 4.66187,0.61308 8.68161,0.98661 13.11615,1.33481 2.12714,-0.44973 3.85962,-0.80708 5.54734,-1.31361 2.79889,-0.84002 5.56894,-1.776 8.35113,-2.67155 z"
   id="path58" />
<path
   fill="#020a20"
   opacity="1"
   stroke="none"
   d="m 161.01129,86.67749 c -3.00555,9.996864 -4.6571,19.67155 -6.4e-4,29.25745 1.4102,2.90306 3.20754,5.61806 5.18451,8.92213 4.19325,4.06523 8.02954,7.62753 12.21475,11.26549 3.02887,1.04289 5.7088,2.01011 8.75042,2.95035 0.84492,-0.0303 1.32818,-0.0337 2.27238,-0.0507 4.15979,-0.005 7.85861,0.004 11.77408,-0.23546 0.83278,-0.36982 1.44893,-0.49109 2.39795,-0.79736 3.04638,-1.07037 5.7599,-1.95572 8.6802,-3.04581 3.86415,-3.44142 7.52153,-6.67813 11.17928,-10.29704 2.46255,-7.12983 4.92473,-13.87746 7.38689,-20.62509 -0.65645,-13.97883 -6.19301,-25.272775 -18.62142,-32.346513 -16.40094,-9.334744 -39.44577,-5.71637 -51.2184,15.002533 z"
   id="path59" />
<path
   fill="#020a1f"
   opacity="1"
   stroke="none"
   d="m 433.22229,128.93607 c 0.62433,-1.39545 1.02069,-2.95911 1.90756,-4.16074 11.17209,-15.13767 8.95114,-35.919183 -5.22235,-48.207543 -14.50339,-12.574421 -35.60208,-12.34626 -48.96643,0.529495 -14.12381,13.607452 -15.53976,30.884128 -3.62421,48.746268 3.80631,3.85256 7.28248,7.20738 11.0889,10.57179 1.82175,0.86487 3.3133,1.72014 5.25855,2.56821 5.53344,0.0833 10.61316,0.17392 16.0802,0.25955 3.6416,-0.63089 6.89584,-1.25682 10.32886,-2.19809 4.50213,-2.9132 8.82556,-5.51107 13.14892,-8.10894 z"
   id="path60" />
<path
   fill="#ebfefc"
   opacity="1"
   stroke="none"
   d="m 231.24437,104.02852 c -2.85542,6.74058 -5.3176,13.48821 -7.44121,20.73816 10.1353,10.12613 19.98366,19.69815 29.71173,29.39088 7.23709,7.21077 14.31842,14.57791 21.46912,21.87541 1.21527,-0.4674 2.43057,-0.93481 3.8226,-1.69803 -3.02753,-2.67858 -6.23181,-5.06138 -9.48678,-7.48187 2.22955,-9.6616 2.19711,-9.72963 -4.79847,-11.10167 -5.18795,-7.20738 -4.76626,-15.13517 -4.46362,-22.99704 0.0464,-1.20558 1.10895,-2.37204 1.70151,-3.55658 0.75574,1.02849 1.89178,1.95714 2.19317,3.10494 0.78324,2.98314 2.5998,5.35422 5.47623,4.3831 1.90942,-0.64464 3.81653,-3.37013 4.35898,-5.5103 0.8428,-3.32525 -2.10919,-3.60304 -4.66687,-4.3 -1.61804,-0.4409 -2.94418,-2.2271 -4.21341,-3.58542 -0.98065,-1.04955 -1.65137,-2.38467 -2.49365,-3.56882 -0.75101,-1.05578 -2.24231,-2.10145 -2.20905,-3.11219 0.17475,-5.31265 -0.97915,-10.16623 -3.62646,-14.77785 -0.36548,-0.63668 0.47622,-2.081309 0.94696,-3.061663 1.46991,-3.061188 2.01669,-6.455773 -0.60572,-8.683319 -1.25012,-1.061882 -4.51588,-0.698349 -6.38536,0.12149 -3.46888,1.521263 -2.73332,4.819237 -2.06491,7.80735 0.14081,0.629425 0.23033,1.270325 0.39482,2.194202 -5.986,0.71275 -9.99533,8.97609 -17.61961,3.81922 z"
   id="path61" />
<path
   fill="#102c41"
   opacity="1"
   stroke="none"
   d="m 409.35718,139.24805 c -5.07971,-0.0906 -10.15943,-0.18116 -15.80551,0.19424 -0.50128,13.50212 -0.43619,26.53825 0.002,39.45181 0.72348,-1.65872 1.36011,-3.1916 1.37766,-4.73152 0.0984,-8.64416 0.031,-17.29008 0.0635,-25.93524 0.006,-1.51198 0.21704,-3.02321 0.33343,-4.53479 0.55048,0.019 1.10098,0.0379 1.65146,0.0569 0,1.84334 0.0546,3.68863 -0.0114,5.5296 -0.13639,3.80338 0.94037,5.35022 4.96817,3.38219 3.49337,-1.70691 5.11358,-0.38245 5.09094,3.67132 -0.11224,20.11628 -0.0146,40.23362 -0.0839,60.35029 -0.0128,3.70736 0.30197,7.6344 -3.02225,10.4393 3.81201,2.87013 7.62402,5.74025 11.73785,8.74997 10.78659,-9.62079 21.2714,-19.38118 32.07425,-29.32258 -3.28299,-3.78233 -6.88409,-7.38365 -10.95575,-11.17366 -9.30517,8.44152 -18.13977,17.07169 -27.90149,26.60749 0,-25.4612 -8.8e-4,-49.38402 10e-4,-73.30684 2.4e-4,-2.49581 -0.0111,-4.99231 0.049,-7.48691 0.0156,-0.65028 0.28064,-1.29457 0.43109,-1.9416 z"
   id="path62" />
<path
   fill="#03182b"
   opacity="1"
   stroke="none"
   d="m 441.46207,270.67645 c -2.92774,0.5401 -5.41818,1.20203 -7.92945,1.29373 -5.02218,0.18338 -10.05572,0.0544 -15.60418,0.0544 0,4.84604 0,8.89389 0.33841,13.4071 0.79608,0.51126 1.25375,0.5571 2.04504,0.57465 0.7793,-0.011 1.22501,0.006 2.1142,0.001 2.8161,-0.0134 5.18866,-0.004 8.02868,-0.0233 10.82376,-0.0103 21.18006,0.008 31.99439,0.006 3.85483,-0.008 7.25165,0.004 10.64844,0.016 1.62823,-4.55618 3.25644,-9.11236 5.18783,-14.5169 -8.74484,0 -18.26452,0 -28.07095,-0.31372 -2.96604,-0.42087 -5.64527,-0.52805 -8.75241,-0.49912 z"
   id="path63" />
<path
   fill="#0d2d42"
   opacity="1"
   stroke="none"
   d="m 388.07553,136.40575 c -3.47619,-3.35482 -6.95236,-6.70964 -10.72262,-10.2075 -10.19223,9.19443 -20.09034,18.5319 -29.80548,28.33529 0.79565,3.3271 0.41754,3.57834 -3.46512,2.88983 -1.01462,0.89023 -2.02927,1.78043 -3.00095,3.27667 1.76276,1.14205 3.48258,1.67807 5.88968,2.4283 0,1.27071 -0.0252,3.04845 0.006,4.8252 0.0448,2.55082 0.13083,5.10095 0.51135,7.49156 2.59708,-2.31885 4.90467,-4.4545 7.16321,-6.64086 11.14847,-10.79213 22.28394,-21.59767 33.42395,-32.39849 m -23.20859,15.02714 c -1.48944,-0.72729 -2.97888,-1.45457 -4.46835,-2.18185 1.94077,-1.09816 3.67001,-1.28827 5.32013,-1.00957 0.71304,0.12042 1.26251,1.20933 1.88626,1.85832 -0.68851,0.52622 -1.37704,1.05243 -2.73804,1.3331 z"
   id="path64" />
<path
   fill="#062034"
   opacity="1"
   stroke="none"
   d="m 316.10773,121.55949 c -2.74536,0.43311 -5.51541,1.36909 -8.3143,2.20911 -1.68772,0.50653 -3.4202,0.86388 -5.49192,1.77251 -0.35864,14.44465 -0.35794,28.40509 -0.3572,42.36552 4.45974,1.33585 8.91949,2.67171 13.7698,4.03406 0.37934,-16.62192 0.36804,-33.27033 0.39362,-50.3812 z"
   id="path65" />
<path
   fill="#527984"
   opacity="1"
   stroke="none"
   d="m 301.51047,167.96017 c 0.4331,-14.01397 0.4324,-27.97441 0.37625,-42.39373 -4.07517,-0.83243 -8.09491,-1.20596 -12.54468,-1.53612 -0.6087,14.79819 -0.78732,29.55302 -0.93551,44.79622 4.24368,0.0546 8.45687,-0.37911 13.10394,-0.86637 z"
   id="path66" />
<path
   fill="#0f3145"
   opacity="1"
   stroke="none"
   d="m 433.53592,129.0383 c -4.63699,2.49564 -8.96042,5.09351 -13.35181,8.31023 6.20542,6.64485 12.47882,12.67085 18.75223,18.69685 3.65039,-3.3871 7.30081,-6.77422 10.9856,-10.48587 -5.3346,-5.68936 -10.70349,-11.05417 -16.38602,-16.52121 z"
   id="path67" />
<path
   fill="#103348"
   opacity="1"
   stroke="none"
   d="m 347.17627,175.6049 c -0.0684,-2.55041 -0.15442,-5.10054 -0.19925,-7.65136 -0.0312,-1.77675 -0.006,-3.55449 -0.006,-4.8252 -2.4071,-0.75023 -4.12692,-1.28625 -6.00729,-2.15631 -5.68781,4.93236 -11.215,10.19878 -16.87586,15.77589 2.63605,4.18453 5.40576,8.05835 8.78601,11.976 5.17444,-4.34378 9.73844,-8.7314 14.30237,-13.11902 z"
   id="path68" />
<path
   fill="#eefdfb"
   opacity="1"
   stroke="none"
   d="m 120.64136,105.69716 c -1.66827,-0.25833 -3.262,-0.40551 -4.63838,0.0728 -0.44464,0.15453 -0.80068,2.44474 -0.34668,2.88927 0.79621,0.77957 2.79738,1.55598 3.30932,1.1354 0.97715,-0.80281 1.26227,-2.44798 1.67574,-4.09745 z"
   id="path69" />
<path
   fill="#103348"
   opacity="1"
   stroke="none"
   d="m 344.21838,157.16501 c 3.74659,0.94687 4.1247,0.69563 3.14191,-2.32376 -1.24869,0.58299 -2.12726,1.32418 -3.14191,2.32376 z"
   id="path70" />
<path
   fill="#0d344b"
   opacity="1"
   stroke="none"
   d="m 547.34687,294.84167 c -0.27423,0.14774 -0.31635,0.35123 -0.36578,0.86634 0.27886,0.22439 0.52264,0.07 0.84735,-0.33185 0.12353,-0.18024 -0.24939,-0.47867 -0.48157,-0.53449 z"
   id="path71" />
<path
   fill="#030b20"
   opacity="1"
   stroke="none"
   d="m 145.92531,145.48816 c -5.51268,-1.74024 -10.91913,-4.03302 -16.55797,-5.11693 -16.822,-3.23358 -31.216956,8.18542 -37.133446,19.85458 -7.5947,14.97908 -4.52134,32.20162 7.56572,43.36399 12.491926,11.53624 31.262366,13.40608 45.752996,4.56376 0.54685,-0.33369 1.12902,-0.60952 2.16828,-1.26681 3.80093,-4.27234 7.12831,-8.19019 10.5299,-12.44513 1.34731,-4.10109 2.88057,-7.8 3.84148,-11.64205 2.28122,-9.12113 -1.16989,-17.25935 -4.83687,-25.43977 -0.0165,-0.12903 0.1738,-0.30642 -0.14457,-0.32962 -3.94075,-3.86281 -7.56315,-7.70241 -11.18552,-11.54202 z"
   id="path72" />
<path
   fill="#24485a"
   opacity="1"
   stroke="none"
   d="m 158.17658,194.77872 c -3.32738,3.91784 -6.65476,7.83569 -10.10312,12.07367 9.1132,9.4804 18.34738,18.64067 27.88473,27.962 3.65952,-2.07518 7.01587,-4.3114 10.69545,-7.12775 0.29981,-2.32397 0.27638,-4.06782 -0.0872,-5.7716 -1.35787,-0.76497 -2.461,-1.48326 -3.37995,-2.38852 -8.35493,-8.2307 -16.67772,-16.49402 -25.00991,-24.7478 z"
   id="path73" />
<path
   fill="#051f35"
   opacity="1"
   stroke="none"
   d="m 110.41725,270.85944 c 0.72158,4.30575 1.8785,8.48666 3.63978,12.9198 1.38842,0.60989 2.17247,0.96756 3.41871,1.39678 12.79222,0.0606 25.12225,0.0497 37.46402,-0.36712 -1.11743,-2.41486 -1.82816,-5.63043 -3.45804,-6.19571 -4.09125,-1.41885 -3.39337,-3.75876 -2.97302,-6.5914 -7.60716,-0.006 -14.74754,0.0797 -21.88352,-0.0597 -2.55856,-0.05 -5.10654,-0.64209 -7.65935,-0.98676 -2.70441,-0.0803 -5.40881,-0.16052 -8.54858,-0.11587 z"
   id="path74" />
<path
   fill="#15364c"
   opacity="1"
   stroke="none"
   d="m 146.26477,145.37057 c 3.28291,3.9572 6.90531,7.7968 11.12171,11.43161 3.94584,-3.3533 7.29763,-6.5018 10.75845,-9.88101 0.36954,-0.44383 0.63005,-0.65696 0.98959,-1.18832 2.6944,-2.75499 5.28977,-5.19177 7.95055,-7.9144 0.36891,-0.7811 0.67241,-1.27632 0.97592,-1.77155 -3.83629,-3.5623 -7.67258,-7.1246 -11.80241,-10.84818 -6.74713,6.57723 -13.20073,13.31574 -19.99381,20.17185 z"
   id="path75" />
<path
   fill="#031a2f"
   opacity="1"
   stroke="none"
   d="m 148.97723,272.02399 c -0.88888,2.83044 -1.58676,5.17035 2.50449,6.5892 1.62988,0.56528 2.34061,3.78085 3.82616,6.35245 3.81207,0.69787 7.26774,0.83322 11.17009,0.89978 3.47107,-0.16184 6.49548,-0.25486 9.51991,-0.3479 0.65611,-4.57224 1.31224,-9.14447 1.96519,-14.17762 -0.44435,-0.52716 -0.88551,-0.59347 -1.9351,-0.22839 -9.42253,0.59174 -18.23663,0.75211 -27.05074,0.91248 z"
   id="path76" />
<path
   fill="#01091f"
   opacity="1"
   stroke="none"
   d="m 148.5087,272.02179 c 9.28264,-0.15817 18.09674,-0.31854 27.20645,-0.77966 -18.41322,-0.35996 -37.12202,-0.41913 -56.29008,-0.37256 2.09357,0.45041 4.64155,1.04254 7.20011,1.0925 7.13598,0.13937 14.27636,0.0541 21.88352,0.0597 z"
   id="path77" />
<path
   fill="#ecfcfb"
   opacity="1"
   stroke="none"
   d="m 366.89072,413.55496 c -8.97132,0.0729 -17.9426,0.14582 -27.81546,0.20773 -25.9968,-0.0393 -51.09201,-0.0677 -76.18723,-0.096 -12.80256,0 -25.60512,0 -38.40762,-0.007 -7.43123,-31.74905 -35.46582,-43.52005 -58.57793,-39.73791 -21.28511,3.48321 -40.04423,25.27673 -40.84299,48.66794 -0.85984,25.17947 16.51453,47.16274 41.49399,51.90423 20.36145,3.8649 49.29183,-5.90948 57.83425,-38.36636 21.92875,0 43.91281,0.008 65.89685,-0.002 54.15271,-0.0226 108.30542,-0.0475 162.45813,-0.0878 6.33868,-0.005 10.08523,-2.90082 11.56006,-8.78244 1.25878,-5.02005 -0.63907,-10.02774 -5.16309,-12.35269 -2.12881,-1.09399 -4.6889,-1.34876 -7.336,-2.05969 0,-9.50052 0.021,-19.14548 -0.006,-28.79032 -0.024,-8.45065 -2.63882,-11.00326 -11.03787,-10.87951 -1.49942,0.0221 -3.00061,0.009 -4.4978,0.0803 -5.27753,0.2504 -7.17169,2.12723 -7.20075,7.36911 -0.0545,9.83047 -0.0157,19.6615 -0.0295,29.49228 -0.001,0.96451 -0.098,1.92892 -0.17245,3.29992 -7.33887,0 -14.43308,0 -22.07016,0 -0.0887,-1.15277 -0.29181,-2.57656 -0.29263,-4.00048 -0.006,-9.49735 0.0887,-18.99506 0.0325,-28.49195 -0.0294,-4.96124 -2.26688,-7.24045 -7.21198,-7.73187 -0.49621,-0.0493 -0.99872,-0.0349 -1.4982,-0.0528 -12.81085,-0.45919 -14.00009,0.71314 -13.93441,13.52442 0.0419,8.16367 0.0199,16.32764 -0.088,25.40924 -0.71688,1.10583 -1.31933,1.29388 -1.92178,1.4819 -3.64346,0.0728 -7.28696,0.14563 -11.76031,0.21482 -1.62769,-0.0735 -2.42554,-0.14332 -3.22336,-0.21311 m -165.24616,17.32462 c -0.21457,0.63037 -0.41974,1.2641 -0.64508,1.89059 -4.32789,12.03125 -16.48163,20.28171 -28.06392,19.05356 -12.4869,-1.32404 -22.5216,-11.14233 -24.51475,-23.98611 -1.83151,-11.80219 5.5375,-24.35117 17.34154,-29.09156 9.06825,-3.64169 17.79205,-2.56622 25.3995,3.55615 8.81351,7.09299 12.93984,16.29319 10.48271,28.57737 z"
   id="path78" />
<path
   fill="#ecfcf9"
   opacity="1"
   stroke="none"
   d="m 212.07816,135.14835 c -2.71352,0.88534 -5.42704,1.77069 -8.67551,3.26333 -0.69942,21.02594 -0.91267,41.44437 -1.00586,61.86336 -0.0409,8.95364 0.16327,17.9084 0.25617,26.86265 3.44538,2.50603 8.03797,4.30338 10.11012,7.65773 5.16282,8.35749 13.05411,9.98818 21.42798,9.95388 15.12719,-0.0619 25.50178,-8.22266 32.47392,-21.14151 0.52792,-0.97826 0.57397,-2.62883 0.12811,-3.65621 -4.1831,-9.63881 -4.33829,-19.32153 -0.76398,-29.14355 0.21158,-0.58148 0.056,-1.29657 -0.40899,-2.3918 -18.1675,-18.05083 -35.85472,-35.65935 -53.54196,-53.26788 z"
   id="path79" />
<path
   fill="#edfdfb"
   opacity="1"
   stroke="none"
   d="m 347.4884,175.4451 c -4.87606,4.54742 -9.44006,8.93504 -14.32513,13.43832 0.57434,4.47928 2.17703,8.84245 2.17957,13.20658 0.003,5.03975 -0.26816,10.66545 -2.48603,14.97322 -2.80835,5.45481 -1.1177,8.97647 1.92624,12.93486 10.48334,13.6326 26.83646,18.24456 40.53525,11.23962 1.79813,-0.91948 3.07764,-2.80681 4.71435,-4.0975 3.94065,-3.10749 7.95072,-6.12693 12.33564,-9.54444 0.51993,-0.76617 0.63696,-1.16981 0.66571,-2.03474 -0.0172,-7.4971 0.0539,-14.53291 0.0372,-22.02776 -0.0247,-6.7957 0.0385,-13.13238 0.0125,-19.88348 -0.0271,-1.82062 0.0349,-3.22685 0.0969,-4.63309 -0.0651,-13.03615 -0.13018,-26.07228 -0.0826,-39.56717 -1.3789,-1.31404 -2.87045,-2.16931 -4.6922,-3.03418 -11.47024,10.79123 -22.60571,21.59677 -33.75418,32.3889 -2.25854,2.18636 -4.56613,4.32201 -7.16318,6.64086 z"
   id="path80" />
<path
   fill="#ecfbfb"
   opacity="1"
   stroke="none"
   d="m 271.45593,309.45294 c 7.47763,13.47577 21.23688,19.29041 35.28577,15.15534 13.49402,-3.97175 22.29822,-16.86872 21.33521,-31.25315 -0.90201,-13.4739 -11.18604,-24.90875 -24.784,-26.8146 -11.49655,-1.6113 -21.57965,1.65973 -28.82944,11.10296 -7.45465,9.71009 -8.34378,20.35923 -3.00754,31.80945 z"
   id="path81" />
<path
   fill="#264a5b"
   opacity="1"
   stroke="none"
   d="m 212.28494,134.9436 c 17.48046,17.81328 35.16768,35.4218 53.18619,53.07763 3.41181,-3.72875 6.49237,-7.50478 9.54291,-11.63454 -7.18073,-7.65122 -14.26206,-15.01836 -21.49915,-22.22913 -9.72807,-9.69273 -19.57643,-19.26475 -29.71211,-29.00868 -3.99631,3.11659 -7.65369,6.3533 -11.51784,9.79472 z"
   id="path82" />
<path
   fill="#0e2e45"
   opacity="1"
   stroke="none"
   d="m 393.159,203.99228 c -0.0711,7.03583 -0.14221,14.07164 0.15689,21.59933 0.80621,0.81617 1.24225,1.14048 1.67828,1.46477 2.68054,0.008 5.36112,0.017 8.48416,0.0456 3.76676,-2.78472 3.45203,-6.71176 3.46479,-10.41912 0.0692,-20.11667 -0.0283,-40.23401 0.0839,-60.35029 0.0226,-4.05377 -1.59757,-5.37823 -5.09094,-3.67132 -4.0278,1.96803 -5.10456,0.42119 -4.96817,-3.38219 0.066,-1.84097 0.0114,-3.68626 0.0114,-5.5296 -0.55048,-0.019 -1.10098,-0.0379 -1.65146,-0.0569 -0.11639,1.51158 -0.32776,3.02281 -0.33343,4.53479 -0.0325,8.64516 0.0349,17.29108 -0.0635,25.93524 -0.0175,1.53992 -0.65418,3.0728 -1.37766,4.73152 -0.43472,1.52883 -0.49673,2.93506 -0.22818,5.08594 0.16504,7.16719 -5.4e-4,13.58971 -0.1661,20.01224 z"
   id="path83" />
<path
   fill="#10344b"
   opacity="1"
   stroke="none"
   d="m 186.9066,221.87497 c 0.0234,1.74385 0.0469,3.4877 0.0612,5.66528 4.02645,0.0968 8.06197,-0.24006 12.5544,-1.05729 0.45923,-24.14136 0.46154,-47.80239 0.0643,-71.46389 -4.34268,-1.04101 -7.98879,-1.07171 -10.6976,2.72095 -0.25406,0.35573 -1.22484,0.19955 -1.9599,0.60989 -0.0323,0.77657 0.0324,1.22434 0.47802,1.68726 1.08991,1.04147 1.79889,2.06779 2.50789,3.09409 -0.95256,0.6296 -1.90512,1.25921 -2.95509,2.34346 -0.0339,4.48916 0.0296,8.52368 0.33617,12.80387 0.0781,1.74126 -0.0867,3.23682 -0.34942,5.19281 -0.0786,13.10814 -0.0593,25.75585 -0.04,38.40357 z"
   id="path84" />
<path
   fill="#547985"
   opacity="1"
   stroke="none"
   d="m 302.1145,338.70514 c -7.96686,-1.12268 -12.97534,2.90079 -13.04043,10.82416 -0.10926,13.29284 -0.0738,26.58795 0.0297,39.8811 0.0489,6.28717 3.59399,10.57941 9.02057,11.39282 5.26755,0.78958 9.96625,-2.285 11.8313,-8.39666 -2.69827,-2.6655 -6.37494,-4.55762 -7.0849,-7.23612 -1.35999,-5.13098 -1.47727,-10.72553 -1.27384,-16.09607 0.17658,-4.6629 1.0272,-9.0737 -2.00598,-13.33127 -1.69156,-2.37439 -3.03326,-5.60995 0.82147,-6.19696 0,-2.03229 -0.19808,-3.37707 0.0446,-4.63696 0.40378,-2.09665 1.09021,-4.13889 1.65756,-6.20404 z"
   id="path85" />
<path
   fill="#658f9a"
   opacity="1"
   stroke="none"
   d="m 166.03131,285.9342 c -3.45569,-0.13534 -6.91136,-0.27069 -10.73517,-0.56277 -12.69815,-0.14575 -25.02818,-0.1348 -38.17659,-0.13254 -1.53843,0.0348 -2.25848,0.0785 -2.97853,0.1221 0,6.27213 0,12.54428 0,19.64429 12.19361,0 25.04898,0 38.40795,-0.36716 1.62332,-1.20657 2.74307,-2.04596 2.90464,-2.16708 -3.42125,-4.81412 -6.81944,-9.5958 -10.97627,-15.44495 5.67043,0 10.08814,0 14.92592,-6.1e-4 2.48941,-0.36416 4.55873,-0.72769 6.62805,-1.09128 z"
   id="path86" />
<path
   fill="#5a8490"
   opacity="1"
   stroke="none"
   d="m 166.47797,285.86542 c -2.51598,0.43237 -4.5853,0.7959 -7.01017,1.50573 3.12259,4.85221 6.6007,9.35807 9.52935,13.15217 -1.2453,1.78338 -2.1369,3.06021 -3.02851,4.33706 13.11887,-0.0259 26.23774,-0.0517 39.71701,-0.55206 -1.11875,-3.0083 -2.7518,-5.46616 -4.04698,-8.09076 -3.28224,-6.65137 -3.62816,-6.87582 -10.71644,-4.60339 -0.32073,-1.9516 -0.62644,-3.8118 -0.93215,-5.67203 -4.3589,-0.0898 -8.71779,-0.17972 -13.53445,-0.34711 -3.48218,0.0155 -6.50659,0.10855 -9.97766,0.27039 z"
   id="path87" />
<path
   fill="#517a86"
   opacity="1"
   stroke="none"
   d="m 190.45377,285.8725 c -0.15798,1.92987 0.14773,3.79007 0.46846,5.74167 7.08828,-2.27243 7.4342,-2.04798 10.71644,4.60339 1.29518,2.6246 2.92823,5.08246 4.52304,8.02524 9.45789,0.43881 18.8001,0.46859 28.51989,-0.0313 -0.4101,-3.58133 -1.01035,-6.69785 -2.03894,-9.66596 -0.99707,-2.8771 -2.43436,-5.60159 -3.6783,-8.39313 -12.6823,-0.11651 -25.36461,-0.23306 -38.51059,-0.2799 z"
   id="path88" />
<path
   fill="#1c4559"
   opacity="1"
   stroke="none"
   d="m 473.05603,286.4183 c -3.35522,-0.42416 -6.75204,-0.43621 -10.91351,-0.14358 -5.55255,0.45248 -10.3396,0.64364 -15.12854,0.73657 -5.44623,0.10568 -7.53861,2.82098 -5.41831,7.931 1.36255,3.28384 3.62467,6.19443 5.48359,9.27231 8.70751,0 17.41503,0 25.93518,0 0,-5.65506 0,-11.51962 0.0416,-17.7963 z"
   id="path89" />
<path
   fill="#4c717d"
   opacity="1"
   stroke="none"
   d="m 302.47556,338.75586 c -0.92841,2.01443 -1.61484,4.05667 -2.01862,6.15332 -0.24264,1.25989 -0.0446,2.60467 -0.0446,4.63696 -3.85473,0.58701 -2.51303,3.82257 -0.82147,6.19696 3.03318,4.25757 2.18256,8.66837 2.00598,13.33127 -0.20343,5.37054 -0.0861,10.96509 1.27384,16.09607 0.70996,2.6785 4.38663,4.57062 7.12585,6.86212 0.58179,-9.20492 0.79117,-18.45358 0.92758,-27.70337 0.0685,-4.64004 -0.0557,-9.28299 0.0145,-13.92297 0.0886,-5.85208 -2.42712,-9.8103 -8.46313,-11.65036 z"
   id="path90" />
<path
   fill="#2d5869"
   opacity="1"
   stroke="none"
   d="m 419.97827,286.03464 c -0.45767,-0.0458 -0.91534,-0.0917 -1.70639,-0.22974 -8.00873,-0.0183 -15.68408,0.0556 -23.81949,0.54083 1.62339,3.21314 3.79676,5.95355 5.76557,8.8338 2.04541,2.99231 3.89294,6.11991 5.82702,9.18833 6.3277,0.19668 12.65537,0.39337 19.44275,0.16614 -0.9563,-4.28055 -2.43835,-8.11472 -3.76205,-12.00278 -0.72116,-2.11829 -1.17371,-4.32807 -1.74741,-6.49658 z"
   id="path91" />
<path
   fill="#355f6e"
   opacity="1"
   stroke="none"
   d="m 405.65567,304.51166 c -1.54477,-3.21222 -3.3923,-6.33982 -5.43771,-9.33213 -1.96881,-2.88025 -4.14218,-5.62066 -6.23249,-8.78866 -5.36322,-0.39966 -10.7196,-0.43317 -16.74456,-0.1445 -0.91767,1.55847 -1.73471,3.04327 -1.32071,3.98947 2.17706,4.97574 4.66519,9.81537 7.04532,14.70221 7.43362,-0.0942 14.86721,-0.18836 22.69015,-0.42639 z"
   id="path92" />
<path
   fill="#466e7c"
   opacity="1"
   stroke="none"
   d="m 229.42847,286.07407 c 0.77983,2.86987 2.21712,5.59436 3.21419,8.47146 1.02859,2.96811 1.62884,6.08463 2.49072,9.62317 3.86807,0.60489 7.67648,0.98615 11.45228,0.77753 5.34378,-0.29529 9.04386,-4.39896 8.98323,-9.41809 -0.0671,-5.55902 -3.51228,-9.25058 -9.29769,-9.47763 -5.45186,-0.21396 -10.91851,-0.0516 -16.84273,0.0236 z"
   id="path93" />
<path
   fill="#255062"
   opacity="1"
   stroke="none"
   d="m 420.31189,286.00635 c 0.24008,2.1968 0.69263,4.40658 1.41379,6.52487 1.3237,3.88806 2.80575,7.72223 4.22693,11.95773 6.74695,0.17618 13.48874,-0.0266 20.67859,-0.25183 -1.41086,-3.1004 -3.67298,-6.01099 -5.03553,-9.29483 -2.1203,-5.11002 -0.0279,-7.82532 5.41831,-7.931 4.78894,-0.0929 9.57599,-0.28409 14.67053,-0.71643 -10.04968,-0.30283 -20.40598,-0.32107 -31.50748,-0.0383 -3.22827,0.12518 -5.71133,-0.0506 -8.19442,-0.22638 -0.44571,-0.0174 -0.89142,-0.0348 -1.67072,-0.0238 z"
   id="path94" />
<path
   fill="#44727d"
   opacity="1"
   stroke="none"
   d="m 361.97345,286.06091 c -4.45993,-0.0608 -8.92313,-0.2554 -13.37884,-0.14548 -4.64856,0.11463 -8.20563,3.50474 -8.66431,7.90024 -0.54715,5.24323 1.60275,9.31284 6.32522,10.31684 3.81427,0.81091 7.85172,0.57217 12.25061,0.34118 1.46271,-6.44287 2.465,-12.42785 3.46732,-18.41278 z"
   id="path95" />
<path
   fill="#3c6774"
   opacity="1"
   stroke="none"
   d="m 362.43692,286.00119 c -1.46579,6.04465 -2.46808,12.02963 -3.47729,18.41641 7.68731,0.47699 15.38162,0.55216 23.54089,0.57388 -1.91513,-4.94027 -4.40326,-9.7799 -6.58032,-14.75564 -0.414,-0.9462 0.40304,-2.431 0.85519,-3.93958 -4.48962,-0.29974 -9.18228,-0.32724 -14.33847,-0.29507 z"
   id="path96" />
<path
   fill="#51767e"
   opacity="1"
   stroke="none"
   d="m 309.20166,249.96234 c 0.82428,-3.74228 1.42761,-7.16206 2.03067,-10.58029 -7.96649,0 -14.80054,0 -21.83172,0 -1.55317,6.60803 0.22857,11.80946 5.48001,14.6412 4.68142,2.52436 8.92523,1.39919 14.32104,-4.06091 z"
   id="path97" />
<path
   fill="#608b96"
   opacity="1"
   stroke="none"
   d="m 165.51065,304.93152 c 1.3496,-1.34799 2.2412,-2.62482 3.4865,-4.4082 -2.92865,-3.7941 -6.40676,-8.29996 -9.94942,-13.15156 -4.48225,-0.34567 -8.89996,-0.34567 -14.57039,-0.34567 4.15683,5.84915 7.55502,10.63083 10.97627,15.44495 -0.16157,0.12112 -1.28132,0.96051 -2.44047,2.10086 3.98691,0.34421 8.01321,0.38748 12.49751,0.35962 z"
   id="path98" />
<path
   fill="#1e3641"
   opacity="1"
   stroke="none"
   d="m 199.98604,155.01955 c -0.002,23.66102 -0.005,47.32205 -0.007,71.4405 0.66729,0.52994 1.33461,0.60245 2.33789,0.6763 0.24307,-8.95291 0.0389,-17.90767 0.0798,-26.86131 0.0932,-20.41899 0.30644,-40.83742 0.673,-61.67835 -0.41407,-0.30101 -1.03022,-0.17974 -1.86496,0.65496 -0.55197,5.73158 -0.88537,10.74974 -1.21879,15.7679 z"
   id="path99" />
<path
   fill="#000711"
   opacity="1"
   stroke="none"
   d="m 263.1095,413.27719 c 24.87375,0.41785 49.96896,0.44617 75.51886,0.35931 -1.0101,-0.61517 -2.47312,-1.54483 -3.93991,-1.55081 -22.53659,-0.0918 -45.0737,-0.077 -67.61057,-0.0258 -1.2496,0.003 -2.49795,0.53955 -3.96838,1.21728 z"
   id="path100" />
<path
   fill="#102c41"
   opacity="1"
   stroke="none"
   d="m 394.76712,227.28845 c -0.20898,-0.55636 -0.64502,-0.88067 -1.36294,-1.23556 -0.39893,0.37306 -0.51596,0.7767 -0.68351,1.4917 0.57279,0.19953 1.19611,0.0877 2.04645,-0.25614 z"
   id="path101" />
<path
   fill="#000711"
   opacity="1"
   stroke="none"
   d="m 367.05921,413.22687 c 0.62933,0.39788 1.42718,0.46771 2.61322,0.42544 -0.55613,-0.32592 -1.50043,-0.53973 -2.61322,-0.42544 z"
   id="path102" />
<path
   fill="#031a2f"
   opacity="1"
   stroke="none"
   d="m 114.09026,285.02814 c 0.77081,0.28921 1.49086,0.2456 2.5671,0.13916 -0.42786,-0.4205 -1.21191,-0.77817 -2.33964,-1.13907 -0.32186,0.22021 -0.30004,0.44363 -0.22746,0.99991 z"
   id="path103" />
<path
   fill="#000711"
   opacity="1"
   stroke="none"
   d="m 382.07959,413.1864 c 0.39725,0.17883 0.9997,-0.009 1.61572,-0.70383 -0.46112,-0.22537 -0.93582,0.0558 -1.61572,0.70383 z"
   id="path104" />
<path
   fill="#eafbf9"
   opacity="1"
   stroke="none"
   d="m 438.94574,156.41162 c -6.28281,-6.39224 -12.55621,-12.41824 -18.94037,-18.74777 -3.36502,0.32243 -6.61926,0.94836 -10.26086,1.57925 -0.53778,0.65198 -0.80277,1.29627 -0.81842,1.94655 -0.0602,2.4946 -0.0488,4.9911 -0.049,7.48691 -0.002,23.92282 -0.001,47.84564 -0.001,73.30684 9.76172,-9.5358 18.59632,-18.16597 27.74778,-26.90775 0.33523,-0.75122 0.59024,-1.5096 0.33752,-2.01307 -6.26825,-12.48763 -4.71661,-24.52291 1.98471,-36.65096 z"
   id="path105" />
<path
   fill="#eafbf8"
   opacity="1"
   stroke="none"
   d="m 187.02611,160.022 c -0.0647,-0.44775 -0.12946,-0.89552 -0.1895,-2.1145 0.0539,-3.47578 0.10307,-6.18034 0.066,-9.13513 -0.0301,-0.41751 0.0262,-0.58478 -0.0196,-1.18054 -0.0463,-2.47582 0.009,-4.52312 -0.039,-6.88013 -0.0845,-0.74371 -0.0649,-1.17776 -0.0453,-1.6118 -2.67994,-0.96723 -5.35987,-1.93445 -8.38874,-2.97734 -0.65243,0.41957 -0.95593,0.91479 -1.32534,2.05771 -1.58896,4.31312 -3.36469,7.69932 -8.04908,7.8708 -0.26051,0.21314 -0.52102,0.42627 -0.90204,1.22525 -2.70669,4.90398 -5.09355,9.4445 -10.86152,10.21252 3.65045,8.05138 7.10156,16.1896 4.82034,25.31073 -0.96091,3.84205 -2.49417,7.54096 -3.84148,11.64205 8.25798,8.59088 16.58077,16.8542 24.9357,25.0849 0.91895,0.90526 2.02208,1.62355 3.37995,2.38852 0.32086,-12.68779 0.30156,-25.3355 0.28879,-38.85184 0.0703,-2.25586 0.134,-3.64306 0.19772,-5.03029 -0.0635,-4.03451 -0.12705,-8.06903 -0.18479,-12.96808 0.0565,-2.25729 0.10721,-3.65007 0.15795,-5.04283 z"
   id="path106" />
<path
   fill="#0c2f46"
   opacity="1"
   stroke="none"
   d="m 186.948,141.02139 c -0.0557,2.04732 -0.11136,4.09462 0.0899,6.66295 0.15495,0.79343 0.053,1.06584 -0.049,1.33827 -0.0492,2.70455 -0.0984,5.40911 -0.0552,8.55606 0.73039,0.3609 1.70117,0.51708 1.95523,0.16135 2.70881,-3.79266 6.35492,-3.76196 10.6976,-2.72095 0.73297,-5.01768 1.06637,-10.03584 1.40173,-15.51887 -3.6969,-0.47379 -7.39572,-0.48271 -11.60484,-0.16164 -1.15198,0.78093 -1.79367,1.23189 -2.43538,1.68283 z"
   id="path107" />
<path
   fill="#143340"
   opacity="1"
   stroke="none"
   d="m 186.844,140.71171 c 0.74571,-0.14126 1.3874,-0.59222 2.07843,-1.35949 -0.43392,-0.31299 -0.91718,-0.30965 -1.7621,-0.27931 -0.38123,0.46103 -0.40079,0.89508 -0.31633,1.6388 z"
   id="path108" />
<path
   fill="#2d5869"
   opacity="1"
   stroke="none"
   d="m 422.42609,286.00738 c 2.03961,0.19855 4.52267,0.37433 7.28351,0.27771 -2.09485,-0.28176 -4.46741,-0.2911 -7.28351,-0.27771 z"
   id="path109" />
<path
   fill="#103348"
   opacity="1"
   stroke="none"
   d="m 365.20319,151.55566 c 1.02475,-0.40344 1.71328,-0.92965 2.40179,-1.45587 -0.62375,-0.64899 -1.17322,-1.7379 -1.88626,-1.85832 -1.65012,-0.2787 -3.37936,-0.0886 -5.32013,1.00957 1.48947,0.72728 2.97891,1.45456 4.8046,2.30462 z"
   id="path110" />
<path
   fill="#c5e3e7"
   opacity="1"
   stroke="none"
   d="m 157.2554,157.3598 c 5.7845,-0.63898 8.17136,-5.1795 10.76901,-9.85278 -3.3403,2.79336 -6.69209,5.94186 -10.31954,9.31836 -0.27567,0.228 -0.46601,0.40539 -0.44947,0.53442 z"
   id="path111" />
<path
   fill="#c5e3e7"
   opacity="1"
   stroke="none"
   d="m 169.13452,145.73285 c 4.58536,0.14674 6.36109,-3.23946 7.88465,-7.26673 -2.59488,2.07496 -5.19025,4.51174 -7.88465,7.26673 z"
   id="path112" />
<path
   fill="#040b1e"
   opacity="1"
   stroke="none"
   d="m 201.74295,430.4873 c 2.35874,-11.8919 -1.76759,-21.0921 -10.5811,-28.18509 -7.60745,-6.12237 -16.33125,-7.19784 -25.3995,-3.55615 -11.80404,4.74039 -19.17305,17.28937 -17.34154,29.09156 1.99315,12.84378 12.02785,22.66207 24.51475,23.98611 11.58229,1.22815 23.73603,-7.02231 28.06392,-19.05356 0.22534,-0.62649 0.43051,-1.26022 0.74347,-2.28287 z"
   id="path113" />
<path
   fill="#102c41"
   opacity="1"
   stroke="none"
   d="m 393.07117,203.53326 c 0.25339,-5.96351 0.41897,-12.38603 0.34314,-19.13882 -0.3046,6.00644 -0.3678,12.34312 -0.34314,19.13882 z"
   id="path114" />
<path
   fill="#0c2f46"
   opacity="1"
   stroke="none"
   d="m 187.40701,160.03717 c -0.43164,1.37759 -0.48236,2.77037 -0.44143,4.57301 1.0442,-0.21971 1.99676,-0.84932 2.94932,-1.47892 -0.709,-1.0263 -1.41798,-2.05262 -2.50789,-3.09409 z"
   id="path115" />
<path
   fill="#143340"
   opacity="1"
   stroke="none"
   d="m 187.29596,178.27859 c -0.30673,1.14155 -0.37047,2.52875 -0.34286,4.32419 0.25618,-1.08737 0.42103,-2.58293 0.34286,-4.32419 z"
   id="path116" />
<path
   fill="#143340"
   opacity="1"
   stroke="none"
   d="m 186.90257,148.77237 c 0.18831,-0.0222 0.2903,-0.2946 0.23734,-0.65953 -0.21117,0.0747 -0.2674,0.24202 -0.23734,0.65953 z"
   id="path117" />
</svg>
